<svg width="20" height="20" viewBox="0 0 20 20" fill="none" xmlns="http://www.w3.org/2000/svg">
<g id="icon-bera-sel">
<path id="Vector" d="M16.3086 8.6012C16.2954 8.5311 16.2791 8.46406 16.2528 8.40006C16.2627 8.38483 18.4392 5.56593 16.4233 3.82279C14.4106 2.07965 12.0602 4.35306 12.0471 4.36525C11.6734 4.25553 11.2964 4.18849 10.9228 4.15801C10.9228 4.15801 10.9228 4.15801 10.9195 4.15801C10.1524 4.03916 9.07723 4.15801 9.07723 4.15801C8.70682 4.18849 8.33313 4.25553 7.96271 4.36219C7.94959 4.35 5.59925 2.0766 3.58656 3.81975C1.57386 5.56289 3.74718 8.38483 3.75701 8.39702C3.73407 8.46406 3.7144 8.5311 3.70129 8.59815C3.48494 9.80494 2 10.1767 2 12.2795C2 14.4218 3.5505 16.1101 6.71707 16.1101H8.01516C8.02171 16.1162 8.52325 16.7806 9.55911 16.8202C9.55911 16.8202 9.7984 16.8445 10.3491 16.8263C11.4472 16.8263 11.9816 16.1222 11.9848 16.1131H13.2829C16.4494 16.1131 18 14.4249 18 12.2825C18.0098 10.1828 16.5248 9.80798 16.3086 8.6012Z" fill="#2C1A16"/>
</g>
</svg>
