<svg width="400" height="138" viewBox="0 0 400 138" fill="none" xmlns="http://www.w3.org/2000/svg">
<path fill-rule="evenodd" clip-rule="evenodd" d="M24.5639 74.5648C24.5639 79.491 20.5577 83.4971 15.6316 83.4971C10.7054 83.4971 6.69926 79.491 6.69926 74.5648C6.69926 69.6386 10.7054 65.6325 15.6316 65.6325C20.5577 65.6325 24.5639 69.6386 24.5639 74.5648ZM31.2631 99.1286C31.2631 100.361 30.2649 101.362 29.03 101.362H2.23308C0.998185 101.362 0 100.361 0 99.1286C0 90.5089 7.01409 85.7301 15.6315 85.7301C24.249 85.7301 31.2631 90.5089 31.2631 99.1286Z" fill="url(#paint0_linear_4699_852)"/>
<path d="M324.912 37.7192V22.0876H146.266V34.3696" stroke="#999999" stroke-width="0.8" stroke-linecap="square" stroke-dasharray="1.2 2.5"/>
<path d="M329.379 37.7191V8.6891H15.6316V51.1176" stroke="#C1D182" stroke-width="0.8" stroke-linecap="square" stroke-dasharray="1.2 2.5"/>
<path d="M141.8 37.7191V22.0876H20.656V51.1176" stroke="#C1D182" stroke-width="0.8" stroke-linecap="square" stroke-dasharray="1.2 2.5"/>
<path fill-rule="evenodd" clip-rule="evenodd" d="M166.922 60.0499C166.922 63.7446 163.917 66.7492 160.223 66.7492C156.528 66.7492 153.523 63.7446 153.523 60.0499C153.523 56.3553 156.528 53.3507 160.223 53.3507C163.917 53.3507 166.922 56.3553 166.922 60.0499ZM171.947 78.473C171.947 79.3975 171.198 80.1478 170.272 80.1478H150.174C149.248 80.1478 148.5 79.3975 148.5 78.473C148.5 72.0082 153.76 68.4242 160.223 68.4242C166.686 68.4242 171.947 72.0082 171.947 78.473Z" fill="url(#paint1_linear_4699_852)"/>
<path fill-rule="evenodd" clip-rule="evenodd" d="M136.775 60.0499C136.775 63.7446 133.771 66.7492 130.076 66.7492C126.382 66.7492 123.377 63.7446 123.377 60.0499C123.377 56.3553 126.382 53.3507 130.076 53.3507C133.771 53.3507 136.775 56.3553 136.775 60.0499ZM141.8 78.473C141.8 79.3975 141.052 80.1478 140.126 80.1478H120.028C119.102 80.1478 118.353 79.3975 118.353 78.473C118.353 72.0082 123.614 68.4242 130.077 68.4242C136.54 68.4242 141.8 72.0082 141.8 78.473Z" fill="url(#paint2_linear_4699_852)"/>
<path fill-rule="evenodd" clip-rule="evenodd" d="M274.807 60.6082C274.807 63.9949 272.053 66.7491 268.666 66.7491C265.279 66.7491 262.525 63.9949 262.525 60.6082C262.525 57.2214 265.279 54.4672 268.666 54.4672C272.053 54.4672 274.807 57.2214 274.807 60.6082ZM279.413 77.4961C279.413 78.3435 278.727 79.0313 277.878 79.0313H259.455C258.606 79.0313 257.92 78.3435 257.92 77.4961C257.92 71.5701 262.742 68.2846 268.666 68.2846C274.591 68.2846 279.413 71.5701 279.413 77.4961Z" fill="url(#paint3_linear_4699_852)"/>
<path fill-rule="evenodd" clip-rule="evenodd" d="M304.954 60.6082C304.954 63.9949 302.2 66.7491 298.813 66.7491C295.426 66.7491 292.672 63.9949 292.672 60.6082C292.672 57.2214 295.426 54.4672 298.813 54.4672C302.2 54.4672 304.954 57.2214 304.954 60.6082ZM309.56 77.4961C309.56 78.3435 308.874 79.0313 308.025 79.0313H289.602C288.753 79.0313 288.067 78.3435 288.067 77.4961C288.067 71.5701 292.889 68.2846 298.813 68.2846C304.738 68.2846 309.56 71.5701 309.56 77.4961Z" fill="url(#paint4_linear_4699_852)"/>
<path fill-rule="evenodd" clip-rule="evenodd" d="M335.1 60.6082C335.1 63.9949 332.346 66.7491 328.96 66.7491C325.573 66.7491 322.819 63.9949 322.819 60.6082C322.819 57.2214 325.573 54.4672 328.96 54.4672C332.346 54.4672 335.1 57.2214 335.1 60.6082ZM339.707 77.4961C339.707 78.3435 339.02 79.0313 338.171 79.0313H319.749C318.9 79.0313 318.213 78.3435 318.213 77.4961C318.213 71.5701 323.036 68.2846 328.96 68.2846C334.885 68.2846 339.707 71.5701 339.707 77.4961Z" fill="url(#paint5_linear_4699_852)"/>
<path fill-rule="evenodd" clip-rule="evenodd" d="M365.247 60.6082C365.247 63.9949 362.493 66.7491 359.106 66.7491C355.719 66.7491 352.965 63.9949 352.965 60.6082C352.965 57.2214 355.719 54.4672 359.106 54.4672C362.493 54.4672 365.247 57.2214 365.247 60.6082ZM369.853 77.4961C369.853 78.3435 369.167 79.0313 368.318 79.0313H349.895C349.046 79.0313 348.36 78.3435 348.36 77.4961C348.36 71.5701 353.182 68.2846 359.107 68.2846C365.031 68.2846 369.853 71.5701 369.853 77.4961Z" fill="url(#paint6_linear_4699_852)"/>
<path fill-rule="evenodd" clip-rule="evenodd" d="M395.393 60.6083C395.393 63.995 392.639 66.7493 389.252 66.7493C385.865 66.7493 383.111 63.995 383.111 60.6083C383.111 57.2216 385.865 54.4673 389.252 54.4673C392.639 54.4673 395.393 57.2216 395.393 60.6083ZM399.999 77.4962C399.999 78.3437 399.313 79.0314 398.464 79.0314H380.041C379.192 79.0314 378.506 78.3437 378.506 77.4962C378.506 71.5702 383.328 68.2848 389.252 68.2848C395.177 68.2848 399.999 71.5702 399.999 77.4962Z" fill="url(#paint7_linear_4699_852)"/>
<path fill-rule="evenodd" clip-rule="evenodd" d="M274.807 94.1044C274.807 97.4911 272.053 100.245 268.666 100.245C265.279 100.245 262.525 97.4911 262.525 94.1044C262.525 90.7177 265.279 87.9634 268.666 87.9634C272.053 87.9634 274.807 90.7177 274.807 94.1044ZM279.413 110.992C279.413 111.84 278.727 112.527 277.878 112.527H259.455C258.606 112.527 257.92 111.84 257.92 110.992C257.92 105.066 262.742 101.781 268.666 101.781C274.591 101.781 279.413 105.066 279.413 110.992Z" fill="url(#paint8_linear_4699_852)"/>
<path fill-rule="evenodd" clip-rule="evenodd" d="M304.954 94.1043C304.954 97.4911 302.2 100.245 298.813 100.245C295.426 100.245 292.672 97.4911 292.672 94.1043C292.672 90.7176 295.426 87.9634 298.813 87.9634C302.2 87.9634 304.954 90.7176 304.954 94.1043ZM309.56 110.992C309.56 111.84 308.874 112.527 308.025 112.527H289.602C288.753 112.527 288.067 111.84 288.067 110.992C288.067 105.066 292.889 101.781 298.813 101.781C304.738 101.781 309.56 105.066 309.56 110.992Z" fill="url(#paint9_linear_4699_852)"/>
<path fill-rule="evenodd" clip-rule="evenodd" d="M335.1 94.1043C335.1 97.4911 332.346 100.245 328.96 100.245C325.573 100.245 322.819 97.4911 322.819 94.1043C322.819 90.7176 325.573 87.9634 328.96 87.9634C332.346 87.9634 335.1 90.7176 335.1 94.1043ZM339.707 110.992C339.707 111.84 339.02 112.527 338.171 112.527H319.749C318.9 112.527 318.213 111.84 318.213 110.992C318.213 105.066 323.036 101.781 328.96 101.781C334.885 101.781 339.707 105.066 339.707 110.992Z" fill="url(#paint10_linear_4699_852)"/>
<path fill-rule="evenodd" clip-rule="evenodd" d="M365.247 94.1043C365.247 97.4911 362.493 100.245 359.106 100.245C355.719 100.245 352.965 97.4911 352.965 94.1043C352.965 90.7176 355.719 87.9634 359.106 87.9634C362.493 87.9634 365.247 90.7176 365.247 94.1043ZM369.853 110.992C369.853 111.84 369.167 112.527 368.318 112.527H349.895C349.046 112.527 348.36 111.84 348.36 110.992C348.36 105.066 353.182 101.781 359.107 101.781C365.031 101.781 369.853 105.066 369.853 110.992Z" fill="url(#paint11_linear_4699_852)"/>
<path fill-rule="evenodd" clip-rule="evenodd" d="M395.393 94.1043C395.393 97.4911 392.639 100.245 389.252 100.245C385.865 100.245 383.111 97.4911 383.111 94.1043C383.111 90.7176 385.865 87.9634 389.252 87.9634C392.639 87.9634 395.393 90.7176 395.393 94.1043ZM399.999 110.992C399.999 111.84 399.313 112.527 398.464 112.527H380.041C379.192 112.527 378.506 111.84 378.506 110.992C378.506 105.066 383.328 101.781 389.252 101.781C395.177 101.781 399.999 105.066 399.999 110.992Z" fill="url(#paint12_linear_4699_852)"/>
<path fill-rule="evenodd" clip-rule="evenodd" d="M181.436 93.5461C181.436 97.2407 178.432 100.245 174.737 100.245C171.043 100.245 168.038 97.2407 168.038 93.5461C168.038 89.8515 171.043 86.8469 174.737 86.8469C178.432 86.8469 181.436 89.8515 181.436 93.5461ZM186.462 111.969C186.462 112.894 185.713 113.644 184.787 113.644H164.689C163.763 113.644 163.014 112.894 163.014 111.969C163.014 105.504 168.275 101.92 174.738 101.92C181.201 101.92 186.462 105.504 186.462 111.969Z" fill="url(#paint13_linear_4699_852)"/>
<path fill-rule="evenodd" clip-rule="evenodd" d="M151.29 93.5461C151.29 97.2407 148.286 100.245 144.591 100.245C140.896 100.245 137.892 97.2407 137.892 93.5461C137.892 89.8515 140.896 86.8469 144.591 86.8469C148.286 86.8469 151.29 89.8515 151.29 93.5461ZM156.315 111.969C156.315 112.894 155.567 113.644 154.64 113.644H134.543C133.617 113.644 132.868 112.894 132.868 111.969C132.868 105.504 138.128 101.92 144.592 101.92C151.055 101.92 156.315 105.504 156.315 111.969Z" fill="url(#paint14_linear_4699_852)"/>
<path fill-rule="evenodd" clip-rule="evenodd" d="M121.144 93.5461C121.144 97.2407 118.139 100.245 114.445 100.245C110.75 100.245 107.746 97.2407 107.746 93.5461C107.746 89.8515 110.75 86.8469 114.445 86.8469C118.139 86.8469 121.144 89.8515 121.144 93.5461ZM126.169 111.969C126.169 112.894 125.42 113.644 124.494 113.644H104.396C103.47 113.644 102.722 112.894 102.722 111.969C102.722 105.504 107.982 101.92 114.445 101.92C120.908 101.92 126.169 105.504 126.169 111.969Z" fill="url(#paint15_linear_4699_852)"/>
<path d="M21.8034 134.981C21.2303 134.981 20.7554 134.866 20.3787 134.637C20.0021 134.408 19.7196 134.101 19.5313 133.716C19.3429 133.331 19.2488 132.901 19.2488 132.426V128.754H20.5629V132.07C20.5629 132.635 20.7021 133.065 20.9805 133.36C21.2671 133.646 21.7338 133.789 22.3807 133.789C23.0603 133.789 23.5556 133.622 23.8668 133.286C24.1861 132.942 24.3458 132.438 24.3458 131.775L24.5791 131.763L24.6528 132.967H24.3703C24.313 133.31 24.182 133.634 23.9773 133.937C23.7726 134.24 23.4901 134.49 23.1299 134.686C22.7778 134.883 22.3356 134.981 21.8034 134.981ZM25.6722 134.858H24.4563V132.942L24.3458 132.881V128.754H25.6722V134.858Z" fill="#E6FC8D"/>
<path d="M14.8966 134.981C14.2252 134.981 13.6316 134.85 13.1158 134.588C12.6081 134.318 12.211 133.945 11.9244 133.47C11.646 132.987 11.5068 132.434 11.5068 131.812C11.5068 131.173 11.646 130.617 11.9244 130.142C12.211 129.667 12.6081 129.298 13.1158 129.036C13.6316 128.766 14.2252 128.631 14.8966 128.631C15.5844 128.631 16.1822 128.766 16.6898 129.036C17.1975 129.298 17.5905 129.667 17.8689 130.142C18.1554 130.617 18.2987 131.173 18.2987 131.812C18.2987 132.434 18.1554 132.987 17.8689 133.47C17.5905 133.945 17.1975 134.318 16.6898 134.588C16.1822 134.85 15.5844 134.981 14.8966 134.981ZM14.8966 133.802C15.6417 133.802 16.1781 133.634 16.5056 133.298C16.8331 132.954 16.9969 132.459 16.9969 131.812C16.9969 131.165 16.8331 130.67 16.5056 130.326C16.1781 129.974 15.6417 129.798 14.8966 129.798C14.1597 129.798 13.6275 129.974 13.3 130.326C12.9725 130.67 12.8087 131.165 12.8087 131.812C12.8087 132.459 12.9725 132.954 13.3 133.298C13.6275 133.634 14.1597 133.802 14.8966 133.802Z" fill="#E6FC8D"/>
<path d="M7.56911 132.094H6.34092L2.68091 126.629H4.30212L6.24266 129.552L6.93045 130.596H7.02871L7.70421 129.552L9.63247 126.629H11.266L7.56911 132.094ZM7.60596 134.858H6.29179V131.235H7.60596V134.858Z" fill="#E6FC8D"/>
<path d="M72.9089 38.1099C72.4889 38.1099 72.1409 38.0259 71.8649 37.8579C71.5889 37.6899 71.3819 37.4649 71.2439 37.1829C71.1059 36.9009 71.0369 36.5859 71.0369 36.2379V33.5469H71.9999V35.9769C71.9999 36.3909 72.1019 36.7059 72.3059 36.9219C72.5159 37.1319 72.8579 37.2369 73.3319 37.2369C73.8299 37.2369 74.1929 37.1139 74.4209 36.8679C74.6549 36.6159 74.7719 36.2469 74.7719 35.7609L74.9429 35.7519L74.9969 36.6339H74.7899C74.7479 36.8859 74.6519 37.1229 74.5019 37.3449C74.3519 37.5669 74.1449 37.7499 73.8809 37.8939C73.6229 38.0379 73.2989 38.1099 72.9089 38.1099ZM75.7439 38.0199H74.8529V36.6159L74.7719 36.5709V33.5469H75.7439V38.0199ZM79.4709 38.1099C78.9729 38.1099 78.5649 37.9869 78.2469 37.7409C77.9289 37.4949 77.7249 37.1679 77.6349 36.7599H77.4279V35.8599H77.5989C77.5989 36.1599 77.6619 36.4149 77.7879 36.6249C77.9139 36.8289 78.0909 36.9819 78.3189 37.0839C78.5529 37.1799 78.8259 37.2279 79.1379 37.2279C79.4619 37.2279 79.7349 37.1829 79.9569 37.0929C80.1849 36.9969 80.3589 36.8439 80.4789 36.6339C80.5989 36.4239 80.6589 36.1419 80.6589 35.7879C80.6589 35.4279 80.5989 35.1429 80.4789 34.9329C80.3589 34.7229 80.1849 34.5729 79.9569 34.4829C79.7349 34.3929 79.4679 34.3479 79.1559 34.3479C78.6579 34.3479 78.2739 34.4679 78.0039 34.7079C77.7339 34.9419 77.5989 35.2989 77.5989 35.7789H77.4279L77.3649 34.7889H77.5989C77.6889 34.3749 77.8899 34.0509 78.2019 33.8169C78.5199 33.5769 78.9399 33.4569 79.4619 33.4569C79.9239 33.4569 80.3169 33.5559 80.6409 33.7539C80.9649 33.9459 81.2109 34.2159 81.3789 34.5639C81.5469 34.9119 81.6309 35.3199 81.6309 35.7879C81.6309 36.2439 81.5469 36.6489 81.3789 37.0029C81.2169 37.3509 80.9739 37.6239 80.6499 37.8219C80.3319 38.0139 79.9389 38.1099 79.4709 38.1099ZM77.5989 39.5499H76.6269V33.5469H77.5179V34.9509L77.5989 35.0679V39.5499ZM86.7768 38.0199H85.7508C85.2708 38.0199 84.8898 37.9029 84.6078 37.6689C84.3318 37.4349 84.1938 37.0479 84.1938 36.5079V32.5659H85.1568V36.4539C85.1568 36.7299 85.2228 36.9159 85.3548 37.0119C85.4868 37.1019 85.6908 37.1469 85.9668 37.1469H86.7768V38.0199ZM86.7768 34.3569H83.4378V33.5469H86.7768V34.3569ZM89.6707 38.1099C89.1787 38.1099 88.7437 38.0139 88.3657 37.8219C87.9937 37.6239 87.7027 37.3509 87.4927 37.0029C87.2887 36.6489 87.1867 36.2439 87.1867 35.7879C87.1867 35.3199 87.2887 34.9119 87.4927 34.5639C87.7027 34.2159 87.9937 33.9459 88.3657 33.7539C88.7437 33.5559 89.1787 33.4569 89.6707 33.4569C90.1747 33.4569 90.6127 33.5559 90.9847 33.7539C91.3567 33.9459 91.6447 34.2159 91.8487 34.5639C92.0587 34.9119 92.1637 35.3199 92.1637 35.7879C92.1637 36.2439 92.0587 36.6489 91.8487 37.0029C91.6447 37.3509 91.3567 37.6239 90.9847 37.8219C90.6127 38.0139 90.1747 38.1099 89.6707 38.1099ZM89.6707 37.2459C90.2167 37.2459 90.6097 37.1229 90.8497 36.8769C91.0897 36.6249 91.2097 36.2619 91.2097 35.7879C91.2097 35.3139 91.0897 34.9509 90.8497 34.6989C90.6097 34.4409 90.2167 34.3119 89.6707 34.3119C89.1307 34.3119 88.7407 34.4409 88.5007 34.6989C88.2607 34.9509 88.1407 35.3139 88.1407 35.7879C88.1407 36.2619 88.2607 36.6249 88.5007 36.8769C88.7407 37.1229 89.1307 37.2459 89.6707 37.2459Z" fill="#E6FC8D"/>
<path d="M226.991 39.2264C226.571 39.2264 226.223 39.1424 225.947 38.9744C225.671 38.8064 225.464 38.5814 225.326 38.2994C225.188 38.0174 225.119 37.7024 225.119 37.3544V34.6634H226.082V37.0934C226.082 37.5074 226.184 37.8224 226.388 38.0384C226.598 38.2484 226.94 38.3534 227.414 38.3534C227.912 38.3534 228.275 38.2304 228.503 37.9844C228.737 37.7324 228.854 37.3634 228.854 36.8774L229.025 36.8684L229.079 37.7504H228.872C228.83 38.0024 228.734 38.2394 228.584 38.4614C228.434 38.6834 228.227 38.8664 227.963 39.0104C227.705 39.1544 227.381 39.2264 226.991 39.2264ZM229.826 39.1364H228.935V37.7324L228.854 37.6874V34.6634H229.826V39.1364ZM233.553 39.2264C233.055 39.2264 232.647 39.1034 232.329 38.8574C232.011 38.6114 231.807 38.2844 231.717 37.8764H231.51V36.9764H231.681C231.681 37.2764 231.744 37.5314 231.87 37.7414C231.996 37.9454 232.173 38.0984 232.401 38.2004C232.635 38.2964 232.908 38.3444 233.22 38.3444C233.544 38.3444 233.817 38.2994 234.039 38.2094C234.267 38.1134 234.441 37.9604 234.561 37.7504C234.681 37.5404 234.741 37.2584 234.741 36.9044C234.741 36.5444 234.681 36.2594 234.561 36.0494C234.441 35.8394 234.267 35.6894 234.039 35.5994C233.817 35.5094 233.55 35.4644 233.238 35.4644C232.74 35.4644 232.356 35.5844 232.086 35.8244C231.816 36.0584 231.681 36.4154 231.681 36.8954H231.51L231.447 35.9054H231.681C231.771 35.4914 231.972 35.1674 232.284 34.9334C232.602 34.6934 233.022 34.5734 233.544 34.5734C234.006 34.5734 234.399 34.6724 234.723 34.8704C235.047 35.0624 235.293 35.3324 235.461 35.6804C235.629 36.0284 235.713 36.4364 235.713 36.9044C235.713 37.3604 235.629 37.7654 235.461 38.1194C235.299 38.4674 235.056 38.7404 234.732 38.9384C234.414 39.1304 234.021 39.2264 233.553 39.2264ZM231.681 40.6664H230.709V34.6634H231.6V36.0674L231.681 36.1844V40.6664ZM240.859 39.1364H239.833C239.353 39.1364 238.972 39.0194 238.69 38.7854C238.414 38.5514 238.276 38.1644 238.276 37.6244V33.6824H239.239V37.5704C239.239 37.8464 239.305 38.0324 239.437 38.1284C239.569 38.2184 239.773 38.2634 240.049 38.2634H240.859V39.1364ZM240.859 35.4734H237.52V34.6634H240.859V35.4734ZM243.753 39.2264C243.261 39.2264 242.826 39.1304 242.448 38.9384C242.076 38.7404 241.785 38.4674 241.575 38.1194C241.371 37.7654 241.269 37.3604 241.269 36.9044C241.269 36.4364 241.371 36.0284 241.575 35.6804C241.785 35.3324 242.076 35.0624 242.448 34.8704C242.826 34.6724 243.261 34.5734 243.753 34.5734C244.257 34.5734 244.695 34.6724 245.067 34.8704C245.439 35.0624 245.727 35.3324 245.931 35.6804C246.141 36.0284 246.246 36.4364 246.246 36.9044C246.246 37.3604 246.141 37.7654 245.931 38.1194C245.727 38.4674 245.439 38.7404 245.067 38.9384C244.695 39.1304 244.257 39.2264 243.753 39.2264ZM243.753 38.3624C244.299 38.3624 244.692 38.2394 244.932 37.9934C245.172 37.7414 245.292 37.3784 245.292 36.9044C245.292 36.4304 245.172 36.0674 244.932 35.8154C244.692 35.5574 244.299 35.4284 243.753 35.4284C243.213 35.4284 242.823 35.5574 242.583 35.8154C242.343 36.0674 242.223 36.4304 242.223 36.9044C242.223 37.3784 242.343 37.7414 242.583 37.9934C242.823 38.2394 243.213 38.3624 243.753 38.3624Z" fill="#E0E0E0"/>
<path d="M68.2538 89.0797H65.7309V77.9144H68.2538V89.0797ZM72.575 84.7049H61.4097V82.2893H72.575V84.7049Z" fill="#E0E0E0"/>
<path d="M223.453 89.0797H220.93V77.9144H223.453V89.0797ZM227.774 84.7049H216.609V82.2893H227.774V84.7049Z" fill="#E0E0E0"/>
<path d="M191.883 134.981C190.9 134.981 190.139 134.792 189.598 134.416C189.066 134.039 188.8 133.499 188.8 132.795V132.758H190.126V132.856C190.126 133.257 190.257 133.536 190.519 133.691C190.79 133.839 191.244 133.912 191.883 133.912C192.48 133.912 192.886 133.851 193.099 133.728C193.32 133.597 193.43 133.396 193.43 133.126C193.43 132.872 193.344 132.692 193.172 132.586C193.009 132.479 192.706 132.397 192.263 132.34L190.593 132.119C190.012 132.045 189.557 131.882 189.23 131.628C188.902 131.366 188.739 130.977 188.739 130.461C188.739 130.101 188.845 129.785 189.058 129.515C189.271 129.237 189.59 129.02 190.016 128.864C190.442 128.709 190.966 128.631 191.588 128.631C192.21 128.631 192.742 128.713 193.185 128.877C193.635 129.04 193.979 129.286 194.216 129.614C194.462 129.941 194.585 130.346 194.585 130.829V130.866H193.271V130.793C193.271 130.555 193.221 130.355 193.123 130.191C193.025 130.027 192.849 129.904 192.595 129.822C192.349 129.732 192.001 129.687 191.551 129.687C190.986 129.687 190.593 129.753 190.372 129.884C190.151 130.015 190.04 130.224 190.04 130.51C190.04 130.748 190.122 130.92 190.286 131.026C190.45 131.132 190.757 131.218 191.207 131.284L192.62 131.48C193.34 131.57 193.872 131.746 194.216 132.009C194.56 132.271 194.732 132.655 194.732 133.163C194.732 133.54 194.613 133.867 194.376 134.146C194.138 134.416 193.807 134.625 193.381 134.772C192.955 134.911 192.456 134.981 191.883 134.981Z" fill="#E0E0E0"/>
<path d="M184.846 134.981C184.183 134.981 183.602 134.858 183.102 134.612C182.603 134.367 182.214 134.006 181.935 133.531C181.665 133.057 181.53 132.483 181.53 131.812C181.53 131.173 181.665 130.617 181.935 130.142C182.214 129.667 182.599 129.298 183.09 129.036C183.581 128.766 184.158 128.631 184.822 128.631C185.452 128.631 186.005 128.746 186.48 128.975C186.963 129.196 187.335 129.523 187.597 129.957C187.867 130.383 188.003 130.907 188.003 131.53C188.003 131.636 187.999 131.738 187.99 131.837C187.982 131.927 187.97 132.017 187.953 132.107H182.377V131.37H187.081L186.738 131.824C186.746 131.742 186.75 131.665 186.75 131.591C186.75 131.509 186.75 131.427 186.75 131.345C186.75 130.78 186.586 130.363 186.259 130.093C185.939 129.814 185.452 129.675 184.797 129.675C184.068 129.675 183.548 129.843 183.237 130.179C182.926 130.514 182.771 130.997 182.771 131.628V131.947C182.771 132.586 182.926 133.073 183.237 133.409C183.548 133.744 184.072 133.912 184.809 133.912C185.448 133.912 185.906 133.814 186.185 133.617C186.471 133.413 186.615 133.13 186.615 132.77V132.672H187.941V132.782C187.941 133.216 187.806 133.601 187.536 133.937C187.274 134.264 186.91 134.522 186.443 134.711C185.984 134.891 185.452 134.981 184.846 134.981Z" fill="#E0E0E0"/>
<path d="M180.547 134.858H179.221V126.629H180.547V134.858Z" fill="#E0E0E0"/>
<path d="M178.037 134.858H176.821V133.286L176.735 133.249V131.161C176.735 130.653 176.612 130.301 176.367 130.105C176.129 129.9 175.716 129.798 175.126 129.798C174.561 129.798 174.14 129.896 173.861 130.093C173.583 130.289 173.444 130.612 173.444 131.063V131.112H172.129V131.063C172.129 130.596 172.252 130.183 172.498 129.822C172.744 129.454 173.096 129.163 173.554 128.95C174.021 128.737 174.578 128.631 175.225 128.631C175.871 128.631 176.4 128.742 176.809 128.963C177.226 129.175 177.534 129.47 177.73 129.847C177.935 130.224 178.037 130.657 178.037 131.149V134.858ZM174.058 134.981C173.427 134.981 172.924 134.842 172.547 134.563C172.179 134.277 171.994 133.884 171.994 133.384C171.994 133.065 172.072 132.799 172.228 132.586C172.391 132.365 172.621 132.193 172.916 132.07C173.21 131.947 173.558 131.861 173.959 131.812L176.858 131.505V132.291L174.34 132.573C173.996 132.614 173.738 132.688 173.566 132.795C173.403 132.893 173.321 133.061 173.321 133.298C173.321 133.544 173.407 133.728 173.579 133.851C173.759 133.965 174.037 134.023 174.414 134.023C174.881 134.023 175.286 133.965 175.63 133.851C175.974 133.728 176.244 133.54 176.44 133.286C176.637 133.032 176.735 132.704 176.735 132.303L176.907 132.328V133.335H176.735C176.571 133.851 176.256 134.256 175.789 134.551C175.331 134.837 174.754 134.981 174.058 134.981Z" fill="#E0E0E0"/>
<path d="M171.072 134.858H169.758V131.542C169.758 130.928 169.614 130.49 169.328 130.228C169.041 129.957 168.579 129.822 167.94 129.822C167.457 129.822 167.072 129.908 166.785 130.08C166.499 130.244 166.29 130.481 166.159 130.793C166.036 131.096 165.975 131.464 165.975 131.898L165.717 131.91L165.778 130.621H166.049C166.122 130.277 166.253 129.953 166.442 129.65C166.638 129.347 166.912 129.102 167.264 128.913C167.617 128.725 168.051 128.631 168.566 128.631C169.123 128.631 169.586 128.746 169.954 128.975C170.331 129.196 170.609 129.503 170.789 129.896C170.978 130.281 171.072 130.723 171.072 131.222V134.858ZM165.975 134.858H164.648V126.629H165.975V134.858Z" fill="#E0E0E0"/>
<path d="M155.331 134.858H153.378L151.204 126.629H152.678L154.017 131.837L154.385 133.581H154.484L154.926 131.837L156.584 126.629H158.512L160.281 131.837L160.747 133.581H160.846L161.19 131.837L162.418 126.629H163.867L161.804 134.858H159.851L158.193 130.068L157.591 127.955H157.48L156.891 130.068L155.331 134.858Z" fill="#E0E0E0"/>
<path d="M144.489 134.981C143.843 134.981 143.294 134.85 142.844 134.588C142.402 134.318 142.066 133.945 141.837 133.47C141.607 132.987 141.493 132.434 141.493 131.812C141.493 131.173 141.607 130.617 141.837 130.142C142.066 129.667 142.397 129.298 142.831 129.036C143.265 128.766 143.789 128.631 144.403 128.631C145.124 128.631 145.693 128.799 146.111 129.135C146.528 129.47 146.798 129.896 146.921 130.412H147.228V131.775H146.995C146.995 131.128 146.811 130.645 146.442 130.326C146.074 129.998 145.55 129.835 144.87 129.835C144.453 129.835 144.088 129.9 143.777 130.031C143.466 130.154 143.229 130.359 143.065 130.645C142.909 130.932 142.831 131.321 142.831 131.812C142.831 132.295 142.909 132.68 143.065 132.966C143.229 133.253 143.466 133.458 143.777 133.581C144.088 133.703 144.461 133.765 144.895 133.765C145.329 133.765 145.701 133.699 146.012 133.568C146.332 133.429 146.573 133.216 146.737 132.93C146.909 132.643 146.995 132.291 146.995 131.873H147.228L147.314 133.102H147.02C146.897 133.708 146.614 134.174 146.172 134.502C145.738 134.821 145.177 134.981 144.489 134.981ZM148.321 134.858H147.106V132.942L146.995 132.782V126.629H148.321V134.858Z" fill="#E0E0E0"/>
<path d="M137.649 134.981C136.986 134.981 136.405 134.858 135.905 134.612C135.406 134.367 135.017 134.006 134.739 133.531C134.468 133.057 134.333 132.483 134.333 131.812C134.333 131.173 134.468 130.617 134.739 130.142C135.017 129.667 135.402 129.298 135.893 129.036C136.384 128.766 136.962 128.631 137.625 128.631C138.255 128.631 138.808 128.746 139.283 128.975C139.766 129.196 140.139 129.523 140.401 129.957C140.671 130.383 140.806 130.907 140.806 131.53C140.806 131.636 140.802 131.738 140.794 131.837C140.785 131.927 140.773 132.017 140.757 132.107H135.181V131.37H139.885L139.541 131.824C139.549 131.742 139.553 131.665 139.553 131.591C139.553 131.509 139.553 131.427 139.553 131.345C139.553 130.78 139.389 130.363 139.062 130.093C138.742 129.814 138.255 129.675 137.6 129.675C136.872 129.675 136.352 129.843 136.04 130.179C135.729 130.514 135.574 130.997 135.574 131.628V131.947C135.574 132.586 135.729 133.073 136.04 133.409C136.352 133.744 136.876 133.912 137.613 133.912C138.251 133.912 138.71 133.814 138.988 133.617C139.275 133.413 139.418 133.13 139.418 132.77V132.672H140.744V132.782C140.744 133.216 140.609 133.601 140.339 133.937C140.077 134.264 139.713 134.522 139.246 134.711C138.787 134.891 138.255 134.981 137.649 134.981Z" fill="#E0E0E0"/>
<path d="M129.68 134.858H128.354V128.754H129.57V130.486L129.68 130.547V134.858ZM129.68 131.431H129.386V130.4H129.656C129.713 130.064 129.828 129.765 130 129.503C130.172 129.233 130.401 129.02 130.688 128.864C130.982 128.709 131.339 128.631 131.756 128.631C132.223 128.631 132.604 128.729 132.898 128.926C133.193 129.122 133.406 129.384 133.537 129.712C133.676 130.039 133.746 130.395 133.746 130.78V131.579H132.432V131.038C132.432 130.596 132.333 130.273 132.137 130.068C131.94 129.863 131.613 129.761 131.154 129.761C130.63 129.761 130.254 129.904 130.024 130.191C129.795 130.477 129.68 130.891 129.68 131.431Z" fill="#E0E0E0"/>
<path d="M123.456 134.858H122.129V128.754H123.345V130.486L123.456 130.547V134.858ZM123.456 131.431H123.161V130.4H123.431C123.489 130.064 123.603 129.765 123.775 129.503C123.947 129.233 124.176 129.02 124.463 128.864C124.758 128.709 125.114 128.631 125.531 128.631C125.998 128.631 126.379 128.729 126.674 128.926C126.968 129.122 127.181 129.384 127.312 129.712C127.452 130.039 127.521 130.395 127.521 130.78V131.579H126.207V131.038C126.207 130.596 126.109 130.273 125.912 130.068C125.716 129.863 125.388 129.761 124.93 129.761C124.406 129.761 124.029 129.904 123.8 130.191C123.57 130.477 123.456 130.891 123.456 131.431Z" fill="#E0E0E0"/>
<path d="M117.979 134.981C117.316 134.981 116.735 134.858 116.235 134.612C115.736 134.367 115.347 134.006 115.069 133.531C114.798 133.057 114.663 132.483 114.663 131.812C114.663 131.173 114.798 130.617 115.069 130.142C115.347 129.667 115.732 129.298 116.223 129.036C116.714 128.766 117.292 128.631 117.955 128.631C118.585 128.631 119.138 128.746 119.613 128.975C120.096 129.196 120.469 129.523 120.731 129.957C121.001 130.383 121.136 130.907 121.136 131.53C121.136 131.636 121.132 131.738 121.124 131.837C121.115 131.927 121.103 132.017 121.087 132.107H115.511V131.37H120.215L119.871 131.824C119.879 131.742 119.883 131.665 119.883 131.591C119.883 131.509 119.883 131.427 119.883 131.345C119.883 130.78 119.719 130.363 119.392 130.093C119.073 129.814 118.585 129.675 117.93 129.675C117.202 129.675 116.682 129.843 116.371 130.179C116.059 130.514 115.904 130.997 115.904 131.628V131.947C115.904 132.586 116.059 133.073 116.371 133.409C116.682 133.744 117.206 133.912 117.943 133.912C118.581 133.912 119.04 133.814 119.318 133.617C119.605 133.413 119.748 133.13 119.748 132.77V132.672H121.074V132.782C121.074 133.216 120.939 133.601 120.669 133.937C120.407 134.264 120.043 134.522 119.576 134.711C119.118 134.891 118.585 134.981 117.979 134.981Z" fill="#E0E0E0"/>
<path d="M111.989 134.858H110.662V129.085C110.662 128.57 110.773 128.132 110.994 127.771C111.223 127.403 111.555 127.12 111.989 126.924C112.423 126.727 112.951 126.629 113.573 126.629H114.175V127.612H113.364C112.84 127.612 112.459 127.71 112.222 127.906C111.984 128.095 111.907 128.455 111.989 128.987V129.233V134.858ZM114.175 129.859H109.741V128.754H114.175V129.859Z" fill="#E0E0E0"/>
<path d="M106.045 134.981C105.382 134.981 104.801 134.858 104.301 134.612C103.802 134.367 103.413 134.006 103.134 133.531C102.864 133.057 102.729 132.483 102.729 131.812C102.729 131.173 102.864 130.617 103.134 130.142C103.413 129.667 103.798 129.298 104.289 129.036C104.78 128.766 105.357 128.631 106.021 128.631C106.651 128.631 107.204 128.746 107.679 128.975C108.162 129.196 108.534 129.523 108.796 129.957C109.066 130.383 109.202 130.907 109.202 131.53C109.202 131.636 109.197 131.738 109.189 131.837C109.181 131.927 109.169 132.017 109.152 132.107H103.576V131.37H108.28L107.937 131.824C107.945 131.742 107.949 131.665 107.949 131.591C107.949 131.509 107.949 131.427 107.949 131.345C107.949 130.78 107.785 130.363 107.458 130.093C107.138 129.814 106.651 129.675 105.996 129.675C105.267 129.675 104.747 129.843 104.436 130.179C104.125 130.514 103.969 130.997 103.969 131.628V131.947C103.969 132.586 104.125 133.073 104.436 133.409C104.747 133.744 105.271 133.912 106.008 133.912C106.647 133.912 107.105 133.814 107.384 133.617C107.67 133.413 107.814 133.13 107.814 132.77V132.672H109.14V132.782C109.14 133.216 109.005 133.601 108.735 133.937C108.473 134.264 108.108 134.522 107.642 134.711C107.183 134.891 106.651 134.981 106.045 134.981Z" fill="#E0E0E0"/>
<path d="M96.0491 134.858H94.7227V126.629H98.9968C99.619 126.629 100.155 126.723 100.606 126.912C101.064 127.1 101.412 127.374 101.65 127.734C101.895 128.095 102.018 128.533 102.018 129.049C102.018 129.507 101.92 129.9 101.723 130.228C101.535 130.555 101.257 130.813 100.888 131.001C100.528 131.19 100.09 131.3 99.574 131.333V131.419C99.8933 131.501 100.139 131.636 100.311 131.824C100.491 132.004 100.655 132.225 100.802 132.488L102.178 134.858H100.655L99.3407 132.586C99.2178 132.365 99.0827 132.189 98.9354 132.058C98.7962 131.918 98.6201 131.82 98.4072 131.763C98.1943 131.697 97.9119 131.665 97.5598 131.665H96.0491V134.858ZM96.0491 127.82V130.645H98.9845C99.5331 130.645 99.9466 130.539 100.225 130.326C100.503 130.113 100.643 129.749 100.643 129.233C100.643 128.733 100.503 128.373 100.225 128.152C99.9466 127.931 99.5331 127.82 98.9845 127.82H96.0491Z" fill="#E0E0E0"/>
<path d="M379.489 134.981C378.506 134.981 377.745 134.793 377.204 134.416C376.672 134.039 376.406 133.499 376.406 132.795V132.758H377.732V132.856C377.732 133.257 377.863 133.536 378.125 133.691C378.396 133.839 378.85 133.912 379.489 133.912C380.086 133.912 380.492 133.851 380.705 133.728C380.926 133.597 381.036 133.396 381.036 133.126C381.036 132.872 380.95 132.692 380.778 132.586C380.614 132.479 380.312 132.398 379.869 132.34L378.199 132.119C377.618 132.045 377.163 131.882 376.836 131.628C376.508 131.366 376.344 130.977 376.344 130.461C376.344 130.101 376.451 129.786 376.664 129.515C376.877 129.237 377.196 129.02 377.622 128.864C378.048 128.709 378.572 128.631 379.194 128.631C379.816 128.631 380.348 128.713 380.791 128.877C381.241 129.041 381.585 129.286 381.822 129.614C382.068 129.941 382.191 130.346 382.191 130.83V130.866H380.877V130.793C380.877 130.555 380.827 130.355 380.729 130.191C380.631 130.027 380.455 129.904 380.201 129.822C379.955 129.732 379.607 129.687 379.157 129.687C378.592 129.687 378.199 129.753 377.978 129.884C377.757 130.015 377.646 130.224 377.646 130.51C377.646 130.748 377.728 130.92 377.892 131.026C378.056 131.133 378.363 131.218 378.813 131.284L380.226 131.481C380.946 131.571 381.478 131.747 381.822 132.009C382.166 132.271 382.338 132.655 382.338 133.163C382.338 133.54 382.219 133.867 381.982 134.146C381.744 134.416 381.413 134.625 380.987 134.772C380.561 134.911 380.062 134.981 379.489 134.981Z" fill="#E0E0E0"/>
<path d="M372.452 134.981C371.789 134.981 371.208 134.858 370.708 134.612C370.209 134.367 369.82 134.006 369.542 133.532C369.271 133.057 369.136 132.484 369.136 131.812C369.136 131.173 369.271 130.617 369.542 130.142C369.82 129.667 370.205 129.298 370.696 129.036C371.187 128.766 371.765 128.631 372.428 128.631C373.058 128.631 373.611 128.746 374.086 128.975C374.569 129.196 374.941 129.524 375.203 129.958C375.474 130.383 375.609 130.907 375.609 131.53C375.609 131.636 375.605 131.738 375.597 131.837C375.588 131.927 375.576 132.017 375.56 132.107H369.984V131.37H374.688L374.344 131.824C374.352 131.743 374.356 131.665 374.356 131.591C374.356 131.509 374.356 131.427 374.356 131.345C374.356 130.78 374.192 130.363 373.865 130.093C373.545 129.814 373.058 129.675 372.403 129.675C371.674 129.675 371.155 129.843 370.843 130.179C370.532 130.514 370.377 130.997 370.377 131.628V131.947C370.377 132.586 370.532 133.073 370.843 133.409C371.155 133.744 371.679 133.912 372.415 133.912C373.054 133.912 373.513 133.814 373.791 133.618C374.078 133.413 374.221 133.13 374.221 132.77V132.672H375.547V132.782C375.547 133.216 375.412 133.601 375.142 133.937C374.88 134.264 374.516 134.522 374.049 134.711C373.59 134.891 373.058 134.981 372.452 134.981Z" fill="#E0E0E0"/>
<path d="M368.154 134.858H366.827V126.629H368.154V134.858Z" fill="#E0E0E0"/>
<path d="M365.643 134.858H364.427V133.286L364.341 133.249V131.161C364.341 130.654 364.219 130.301 363.973 130.105C363.735 129.9 363.322 129.798 362.732 129.798C362.168 129.798 361.746 129.896 361.467 130.093C361.189 130.289 361.05 130.613 361.05 131.063V131.112H359.736V131.063C359.736 130.596 359.859 130.183 360.104 129.822C360.35 129.454 360.702 129.163 361.16 128.95C361.627 128.738 362.184 128.631 362.831 128.631C363.478 128.631 364.006 128.742 364.415 128.963C364.833 129.176 365.14 129.47 365.336 129.847C365.541 130.224 365.643 130.658 365.643 131.149V134.858ZM361.664 134.981C361.033 134.981 360.53 134.842 360.153 134.563C359.785 134.277 359.601 133.884 359.601 133.384C359.601 133.065 359.678 132.799 359.834 132.586C359.998 132.365 360.227 132.193 360.522 132.07C360.817 131.947 361.164 131.861 361.566 131.812L364.464 131.505V132.291L361.946 132.574C361.603 132.615 361.345 132.688 361.173 132.795C361.009 132.893 360.927 133.061 360.927 133.298C360.927 133.544 361.013 133.728 361.185 133.851C361.365 133.966 361.643 134.023 362.02 134.023C362.487 134.023 362.892 133.966 363.236 133.851C363.58 133.728 363.85 133.54 364.047 133.286C364.243 133.032 364.341 132.705 364.341 132.303L364.513 132.328V133.335H364.341C364.178 133.851 363.862 134.256 363.396 134.551C362.937 134.838 362.36 134.981 361.664 134.981Z" fill="#E0E0E0"/>
<path d="M358.678 134.858H357.364V131.542C357.364 130.928 357.221 130.49 356.934 130.228C356.647 129.957 356.185 129.822 355.546 129.822C355.063 129.822 354.678 129.908 354.392 130.08C354.105 130.244 353.896 130.482 353.765 130.793C353.642 131.096 353.581 131.464 353.581 131.898L353.323 131.91L353.385 130.621H353.655C353.728 130.277 353.859 129.953 354.048 129.65C354.244 129.347 354.519 129.102 354.871 128.914C355.223 128.725 355.657 128.631 356.173 128.631C356.729 128.631 357.192 128.746 357.56 128.975C357.937 129.196 358.215 129.503 358.396 129.896C358.584 130.281 358.678 130.723 358.678 131.223V134.858ZM353.581 134.858H352.255V126.629H353.581V134.858Z" fill="#E0E0E0"/>
<path d="M342.937 134.858H340.984L338.811 126.629H340.284L341.623 131.837L341.992 133.581H342.09L342.532 131.837L344.19 126.629H346.118L347.887 131.837L348.354 133.581H348.452L348.796 131.837L350.024 126.629H351.473L349.41 134.858H347.457L345.799 130.068L345.197 127.956H345.087L344.497 130.068L342.937 134.858Z" fill="#E0E0E0"/>
<path d="M336.243 130.682H332.411V130.314C332.411 129.88 332.513 129.556 332.718 129.343C332.931 129.122 333.226 128.946 333.602 128.815L334.634 128.484C334.871 128.402 335.047 128.32 335.162 128.238C335.277 128.156 335.334 128.037 335.334 127.882C335.334 127.71 335.268 127.579 335.137 127.489C335.015 127.399 334.761 127.354 334.376 127.354C333.999 127.354 333.725 127.411 333.553 127.526C333.381 127.632 333.295 127.816 333.295 128.078V128.189H332.337V128.054C332.337 127.784 332.411 127.53 332.558 127.292C332.706 127.055 332.935 126.867 333.246 126.727C333.557 126.58 333.95 126.506 334.425 126.506C335.047 126.506 335.514 126.633 335.825 126.887C336.136 127.133 336.292 127.448 336.292 127.833C336.292 128.177 336.173 128.443 335.936 128.631C335.706 128.811 335.367 128.963 334.916 129.085L333.897 129.368C333.717 129.433 333.582 129.511 333.492 129.601C333.402 129.691 333.357 129.814 333.357 129.97L334.843 129.847H336.243V130.682Z" fill="#E0E0E0"/>
<path d="M327.574 134.981C326.927 134.981 326.378 134.85 325.928 134.588C325.486 134.318 325.15 133.945 324.921 133.47C324.692 132.987 324.577 132.434 324.577 131.812C324.577 131.173 324.692 130.617 324.921 130.142C325.15 129.667 325.482 129.298 325.916 129.036C326.35 128.766 326.874 128.631 327.488 128.631C328.208 128.631 328.777 128.799 329.195 129.135C329.612 129.47 329.883 129.896 330.006 130.412H330.313V131.775H330.079C330.079 131.128 329.895 130.645 329.527 130.326C329.158 129.998 328.634 129.835 327.954 129.835C327.537 129.835 327.172 129.9 326.861 130.031C326.55 130.154 326.313 130.359 326.149 130.645C325.993 130.932 325.916 131.321 325.916 131.812C325.916 132.295 325.993 132.68 326.149 132.967C326.313 133.253 326.55 133.458 326.861 133.581C327.172 133.703 327.545 133.765 327.979 133.765C328.413 133.765 328.786 133.699 329.097 133.568C329.416 133.429 329.658 133.216 329.821 132.93C329.993 132.643 330.079 132.291 330.079 131.873H330.313L330.399 133.102H330.104C329.981 133.708 329.698 134.174 329.256 134.502C328.822 134.821 328.261 134.981 327.574 134.981ZM331.406 134.858H330.19V132.942L330.079 132.782V126.629H331.406V134.858Z" fill="#E0E0E0"/>
<path d="M320.734 134.981C320.07 134.981 319.489 134.858 318.99 134.612C318.49 134.367 318.101 134.006 317.823 133.532C317.553 133.057 317.417 132.484 317.417 131.812C317.417 131.173 317.553 130.617 317.823 130.142C318.101 129.667 318.486 129.298 318.977 129.036C319.469 128.766 320.046 128.631 320.709 128.631C321.34 128.631 321.892 128.746 322.367 128.975C322.85 129.196 323.223 129.524 323.485 129.958C323.755 130.383 323.89 130.907 323.89 131.53C323.89 131.636 323.886 131.738 323.878 131.837C323.87 131.927 323.857 132.017 323.841 132.107H318.265V131.37H322.969L322.625 131.824C322.633 131.743 322.637 131.665 322.637 131.591C322.637 131.509 322.637 131.427 322.637 131.345C322.637 130.78 322.474 130.363 322.146 130.093C321.827 129.814 321.34 129.675 320.684 129.675C319.956 129.675 319.436 129.843 319.125 130.179C318.814 130.514 318.658 130.997 318.658 131.628V131.947C318.658 132.586 318.814 133.073 319.125 133.409C319.436 133.744 319.96 133.912 320.697 133.912C321.335 133.912 321.794 133.814 322.072 133.618C322.359 133.413 322.502 133.13 322.502 132.77V132.672H323.829V132.782C323.829 133.216 323.694 133.601 323.423 133.937C323.161 134.264 322.797 134.522 322.33 134.711C321.872 134.891 321.34 134.981 320.734 134.981Z" fill="#E0E0E0"/>
<path d="M312.765 134.858H311.438V128.754H312.654V130.486L312.765 130.547V134.858ZM312.765 131.431H312.47V130.4H312.74C312.798 130.064 312.912 129.765 313.084 129.503C313.256 129.233 313.485 129.02 313.772 128.864C314.067 128.709 314.423 128.631 314.841 128.631C315.307 128.631 315.688 128.729 315.983 128.926C316.278 129.122 316.49 129.384 316.621 129.712C316.761 130.039 316.83 130.396 316.83 130.78V131.579H315.516V131.038C315.516 130.596 315.418 130.273 315.221 130.068C315.025 129.863 314.697 129.761 314.239 129.761C313.715 129.761 313.338 129.904 313.109 130.191C312.88 130.477 312.765 130.891 312.765 131.431Z" fill="#E0E0E0"/>
<path d="M306.54 134.858H305.214V128.754H306.43V130.486L306.54 130.547V134.858ZM306.54 131.431H306.245V130.4H306.516C306.573 130.064 306.687 129.765 306.859 129.503C307.031 129.233 307.261 129.02 307.547 128.864C307.842 128.709 308.198 128.631 308.616 128.631C309.082 128.631 309.463 128.729 309.758 128.926C310.053 129.122 310.266 129.384 310.397 129.712C310.536 130.039 310.605 130.396 310.605 130.78V131.579H309.291V131.038C309.291 130.596 309.193 130.273 308.996 130.068C308.8 129.863 308.472 129.761 308.014 129.761C307.49 129.761 307.113 129.904 306.884 130.191C306.655 130.477 306.54 130.891 306.54 131.431Z" fill="#E0E0E0"/>
<path d="M301.064 134.981C300.401 134.981 299.819 134.858 299.32 134.612C298.82 134.367 298.431 134.006 298.153 133.532C297.883 133.057 297.748 132.484 297.748 131.812C297.748 131.173 297.883 130.617 298.153 130.142C298.431 129.667 298.816 129.298 299.308 129.036C299.799 128.766 300.376 128.631 301.039 128.631C301.67 128.631 302.223 128.746 302.697 128.975C303.181 129.196 303.553 129.524 303.815 129.958C304.085 130.383 304.22 130.907 304.22 131.53C304.22 131.636 304.216 131.738 304.208 131.837C304.2 131.927 304.188 132.017 304.171 132.107H298.595V131.37H303.299L302.955 131.824C302.964 131.743 302.968 131.665 302.968 131.591C302.968 131.509 302.968 131.427 302.968 131.345C302.968 130.78 302.804 130.363 302.476 130.093C302.157 129.814 301.67 129.675 301.015 129.675C300.286 129.675 299.766 129.843 299.455 130.179C299.144 130.514 298.988 130.997 298.988 131.628V131.947C298.988 132.586 299.144 133.073 299.455 133.409C299.766 133.744 300.29 133.912 301.027 133.912C301.666 133.912 302.124 133.814 302.403 133.618C302.689 133.413 302.833 133.13 302.833 132.77V132.672H304.159V132.782C304.159 133.216 304.024 133.601 303.754 133.937C303.492 134.264 303.127 134.522 302.661 134.711C302.202 134.891 301.67 134.981 301.064 134.981Z" fill="#E0E0E0"/>
<path d="M295.072 134.858H293.746V129.085C293.746 128.57 293.856 128.132 294.077 127.771C294.307 127.403 294.638 127.12 295.072 126.924C295.506 126.727 296.034 126.629 296.657 126.629H297.258V127.612H296.448C295.924 127.612 295.543 127.71 295.306 127.906C295.068 128.095 294.99 128.455 295.072 128.987V129.233V134.858ZM297.258 129.859H292.825V128.754H297.258V129.859Z" fill="#E0E0E0"/>
<path d="M289.129 134.981C288.466 134.981 287.885 134.858 287.385 134.612C286.886 134.367 286.497 134.006 286.219 133.532C285.948 133.057 285.813 132.484 285.813 131.812C285.813 131.173 285.948 130.617 286.219 130.142C286.497 129.667 286.882 129.298 287.373 129.036C287.864 128.766 288.442 128.631 289.105 128.631C289.735 128.631 290.288 128.746 290.763 128.975C291.246 129.196 291.618 129.524 291.88 129.958C292.151 130.383 292.286 130.907 292.286 131.53C292.286 131.636 292.282 131.738 292.274 131.837C292.265 131.927 292.253 132.017 292.237 132.107H286.661V131.37H291.365L291.021 131.824C291.029 131.743 291.033 131.665 291.033 131.591C291.033 131.509 291.033 131.427 291.033 131.345C291.033 130.78 290.869 130.363 290.542 130.093C290.222 129.814 289.735 129.675 289.08 129.675C288.351 129.675 287.832 129.843 287.52 130.179C287.209 130.514 287.054 130.997 287.054 131.628V131.947C287.054 132.586 287.209 133.073 287.52 133.409C287.832 133.744 288.356 133.912 289.093 133.912C289.731 133.912 290.19 133.814 290.468 133.618C290.755 133.413 290.898 133.13 290.898 132.77V132.672H292.224V132.782C292.224 133.216 292.089 133.601 291.819 133.937C291.557 134.264 291.193 134.522 290.726 134.711C290.267 134.891 289.735 134.981 289.129 134.981Z" fill="#E0E0E0"/>
<path d="M279.134 134.858H277.807V126.629H282.081C282.704 126.629 283.24 126.723 283.69 126.912C284.149 127.1 284.497 127.374 284.734 127.734C284.98 128.095 285.103 128.533 285.103 129.049C285.103 129.507 285.004 129.9 284.808 130.228C284.619 130.555 284.341 130.813 283.973 131.001C283.612 131.19 283.174 131.3 282.658 131.333V131.419C282.978 131.501 283.223 131.636 283.395 131.824C283.576 132.004 283.739 132.226 283.887 132.488L285.262 134.858H283.739L282.425 132.586C282.302 132.365 282.167 132.189 282.02 132.058C281.881 131.919 281.705 131.82 281.492 131.763C281.279 131.697 280.996 131.665 280.644 131.665H279.134V134.858ZM279.134 127.82V130.645H282.069C282.618 130.645 283.031 130.539 283.309 130.326C283.588 130.113 283.727 129.749 283.727 129.233C283.727 128.733 283.588 128.373 283.309 128.152C283.031 127.931 282.618 127.82 282.069 127.82H279.134Z" fill="#E0E0E0"/>
<path d="M157.432 8.68912C157.432 4.37259 160.931 0.873352 165.248 0.873352H179.577C183.893 0.873352 187.392 4.37259 187.392 8.68912C187.392 13.0056 183.893 16.5049 179.577 16.5049H165.248C160.931 16.5049 157.432 13.0056 157.432 8.68912Z" fill="#C1D182"/>
<path d="M179.687 13.0436C179.226 13.0436 178.824 12.964 178.48 12.8048C178.137 12.6373 177.873 12.3985 177.689 12.0885C177.504 11.7701 177.412 11.3889 177.412 10.9449C177.412 10.5008 177.504 10.1238 177.689 9.81385C177.873 9.49548 178.137 9.25252 178.48 9.08496C178.824 8.9174 179.226 8.83361 179.687 8.83361C180.156 8.83361 180.558 8.9174 180.893 9.08496C181.237 9.25252 181.501 9.49548 181.685 9.81385C181.869 10.1238 181.961 10.5008 181.961 10.9449C181.961 11.3889 181.869 11.7701 181.685 12.0885C181.501 12.3985 181.237 12.6373 180.893 12.8048C180.558 12.964 180.156 13.0436 179.687 13.0436ZM174.145 8.54457C173.684 8.54457 173.282 8.46498 172.938 8.3058C172.595 8.13824 172.331 7.89946 172.147 7.58947C171.962 7.27111 171.87 6.8899 171.87 6.44587C171.87 6.00183 171.962 5.62482 172.147 5.31483C172.331 4.99646 172.595 4.7535 172.938 4.58594C173.282 4.41838 173.684 4.33459 174.145 4.33459C174.614 4.33459 175.016 4.41838 175.351 4.58594C175.695 4.7535 175.959 4.99646 176.143 5.31483C176.327 5.62482 176.419 6.00183 176.419 6.44587C176.419 6.8899 176.327 7.27111 176.143 7.58947C175.959 7.89946 175.695 8.13824 175.351 8.3058C175.016 8.46498 174.614 8.54457 174.145 8.54457ZM174.145 7.03652C174.388 7.03652 174.551 6.99882 174.635 6.92342C174.727 6.84801 174.773 6.68883 174.773 6.44587C174.773 6.2029 174.727 6.03953 174.635 5.95575C174.551 5.87197 174.388 5.83008 174.145 5.83008C173.902 5.83008 173.734 5.87197 173.642 5.95575C173.558 6.03953 173.516 6.2029 173.516 6.44587C173.516 6.68883 173.558 6.84801 173.642 6.92342C173.734 6.99882 173.902 7.03652 174.145 7.03652ZM179.687 11.5355C179.93 11.5355 180.093 11.4978 180.177 11.4224C180.269 11.347 180.315 11.1878 180.315 10.9449C180.315 10.7019 180.269 10.5385 180.177 10.4548C180.093 10.371 179.93 10.3291 179.687 10.3291C179.444 10.3291 179.276 10.371 179.184 10.4548C179.1 10.5385 179.058 10.7019 179.058 10.9449C179.058 11.1878 179.1 11.347 179.184 11.4224C179.276 11.4978 179.444 11.5355 179.687 11.5355ZM174.484 12.9054H172.209L179.36 4.4854H181.635L174.484 12.9054Z" fill="#1F1F1F"/>
<path d="M167.224 13.031C166.294 13.031 165.515 12.9346 164.887 12.7419C164.267 12.5492 163.798 12.2476 163.479 11.8371C163.169 11.4182 163.014 10.8778 163.014 10.2159V10.1405H165.452V10.2159C165.452 10.3751 165.494 10.505 165.578 10.6055C165.67 10.7061 165.846 10.7773 166.106 10.8192C166.366 10.8611 166.751 10.882 167.262 10.882C167.723 10.882 168.066 10.8527 168.293 10.794C168.519 10.727 168.67 10.6265 168.745 10.4924C168.82 10.35 168.858 10.1657 168.858 9.93947C168.858 9.69651 168.82 9.508 168.745 9.37395C168.67 9.23152 168.519 9.13099 168.293 9.07234C168.066 9.00532 167.723 8.9718 167.262 8.9718C166.718 8.9718 166.299 9.00532 166.005 9.07234C165.721 9.13936 165.536 9.28179 165.452 9.49962H164.925L164.887 8.33088H165.553C165.62 8.16332 165.754 7.98738 165.955 7.80306C166.165 7.61037 166.458 7.45119 166.835 7.32551C167.22 7.19147 167.702 7.12444 168.28 7.12444C169.009 7.12444 169.6 7.23754 170.052 7.46375C170.504 7.68158 170.835 7.99995 171.045 8.41885C171.263 8.82938 171.372 9.32787 171.372 9.91433C171.372 10.5343 171.229 11.0789 170.944 11.5481C170.668 12.0172 170.224 12.3817 169.612 12.6414C169.001 12.9011 168.205 13.031 167.224 13.031ZM163.555 4.48535H170.869V6.60919H165.653L165.276 9.49962H163.052L163.555 4.48535Z" fill="#1F1F1F"/>
<path d="M62.5259 22.0876C62.5259 17.771 66.0251 14.2718 70.3416 14.2718H92.4863C96.8028 14.2718 100.302 17.771 100.302 22.0876C100.302 26.4041 96.8028 29.9033 92.4863 29.9033H70.3416C66.0251 29.9033 62.5259 26.4041 62.5259 22.0876Z" fill="#C1D182"/>
<path d="M93.1097 26.442C92.6489 26.442 92.2468 26.3624 91.9033 26.2033C91.5598 26.0357 91.2958 25.7969 91.1115 25.4869C90.9272 25.1686 90.8351 24.7874 90.8351 24.3433C90.8351 23.8993 90.9272 23.5223 91.1115 23.2123C91.2958 22.8939 91.5598 22.651 91.9033 22.4834C92.2468 22.3158 92.6489 22.2321 93.1097 22.2321C93.5789 22.2321 93.981 22.3158 94.3161 22.4834C94.6596 22.651 94.9235 22.8939 95.1079 23.2123C95.2922 23.5223 95.3843 23.8993 95.3843 24.3433C95.3843 24.7874 95.2922 25.1686 95.1079 25.4869C94.9235 25.7969 94.6596 26.0357 94.3161 26.2033C93.981 26.3624 93.5789 26.442 93.1097 26.442ZM87.5676 21.943C87.1068 21.943 86.7047 21.8634 86.3612 21.7042C86.0177 21.5367 85.7538 21.2979 85.5694 20.9879C85.3851 20.6695 85.293 20.2883 85.293 19.8443C85.293 19.4003 85.3851 19.0233 85.5694 18.7133C85.7538 18.3949 86.0177 18.1519 86.3612 17.9844C86.7047 17.8168 87.1068 17.733 87.5676 17.733C88.0368 17.733 88.4389 17.8168 88.7741 17.9844C89.1176 18.1519 89.3815 18.3949 89.5658 18.7133C89.7501 19.0233 89.8423 19.4003 89.8423 19.8443C89.8423 20.2883 89.7501 20.6695 89.5658 20.9879C89.3815 21.2979 89.1176 21.5367 88.7741 21.7042C88.4389 21.8634 88.0368 21.943 87.5676 21.943ZM87.5676 20.435C87.8106 20.435 87.9739 20.3973 88.0577 20.3219C88.1499 20.2465 88.196 20.0873 88.196 19.8443C88.196 19.6013 88.1499 19.438 88.0577 19.3542C87.9739 19.2704 87.8106 19.2285 87.5676 19.2285C87.3246 19.2285 87.1571 19.2704 87.0649 19.3542C86.9811 19.438 86.9393 19.6013 86.9393 19.8443C86.9393 20.0873 86.9811 20.2465 87.0649 20.3219C87.1571 20.3973 87.3246 20.435 87.5676 20.435ZM93.1097 24.934C93.3527 24.934 93.516 24.8963 93.5998 24.8209C93.692 24.7455 93.7381 24.5863 93.7381 24.3433C93.7381 24.1004 93.692 23.937 93.5998 23.8532C93.516 23.7694 93.3527 23.7275 93.1097 23.7275C92.8667 23.7275 92.6992 23.7694 92.607 23.8532C92.5232 23.937 92.4813 24.1004 92.4813 24.3433C92.4813 24.5863 92.5232 24.7455 92.607 24.8209C92.6992 24.8963 92.8667 24.934 93.1097 24.934ZM87.9069 26.3038H85.6323L92.783 17.8838H95.0576L87.9069 26.3038Z" fill="#1F1F1F"/>
<path d="M80.5634 26.4293C79.6083 26.4293 78.8082 26.2492 78.1631 25.8889C77.518 25.5203 77.0279 25.0134 76.6928 24.3683C76.366 23.7148 76.2026 22.9566 76.2026 22.0936C76.2026 21.2307 76.366 20.4767 76.6928 19.8316C77.0279 19.1781 77.518 18.6712 78.1631 18.3109C78.8082 17.9423 79.6083 17.758 80.5634 17.758C81.5185 17.758 82.3186 17.9423 82.9637 18.3109C83.6088 18.6712 84.0948 19.1781 84.4215 19.8316C84.7483 20.4767 84.9116 21.2307 84.9116 22.0936C84.9116 22.9566 84.7483 23.7148 84.4215 24.3683C84.0948 25.0134 83.6088 25.5203 82.9637 25.8889C82.3186 26.2492 81.5185 26.4293 80.5634 26.4293ZM80.5634 24.1295C81.041 24.1295 81.4096 24.0709 81.6693 23.9536C81.9374 23.8279 82.1217 23.6184 82.2223 23.3252C82.3228 23.0236 82.3731 22.6131 82.3731 22.0936C82.3731 21.5742 82.3228 21.1679 82.2223 20.8746C82.1217 20.573 81.9374 20.3636 81.6693 20.2463C81.4096 20.1206 81.041 20.0578 80.5634 20.0578C80.0859 20.0578 79.713 20.1206 79.4449 20.2463C79.1852 20.3636 79.0009 20.573 78.892 20.8746C78.7915 21.1679 78.7412 21.5742 78.7412 22.0936C78.7412 22.6131 78.7915 23.0236 78.892 23.3252C79.0009 23.6184 79.1852 23.8279 79.4449 23.9536C79.713 24.0709 80.0859 24.1295 80.5634 24.1295Z" fill="#1F1F1F"/>
<path d="M71.7228 26.4293C70.7761 26.4293 69.9927 26.312 69.3728 26.0774C68.7612 25.8428 68.3046 25.4993 68.003 25.0469C67.7013 24.5861 67.5505 24.0248 67.5505 23.3629V23.1618H70.064V23.3881C70.064 23.5975 70.0891 23.7609 70.1394 23.8782C70.1896 23.9871 70.3237 24.0625 70.5415 24.1044C70.7593 24.1463 71.1154 24.1672 71.6097 24.1672C72.0873 24.1672 72.4559 24.1505 72.7156 24.1169C72.9837 24.0834 73.168 24.0206 73.2686 23.9284C73.3691 23.8279 73.4194 23.6939 73.4194 23.5263C73.4194 23.3168 73.3565 23.1744 73.2309 23.099C73.1052 23.0152 72.9041 22.9733 72.6276 22.9733H70.1268V21.038H72.4517C72.6863 21.038 72.8455 21.0003 72.9293 20.9249C73.0214 20.8411 73.0675 20.7196 73.0675 20.5605C73.0675 20.4264 73.0298 20.3217 72.9544 20.2463C72.8874 20.1625 72.7449 20.1039 72.5271 20.0703C72.3177 20.0368 72.0035 20.0201 71.5846 20.0201C71.1573 20.0201 70.8347 20.041 70.6169 20.0829C70.3991 20.1248 70.2525 20.2044 70.1771 20.3217C70.1017 20.4306 70.064 20.5898 70.064 20.7992V20.8369H67.5505V20.8244C67.5505 20.196 67.7055 19.6556 68.0155 19.2032C68.3339 18.7424 68.8072 18.3864 69.4356 18.135C70.064 17.8837 70.8557 17.758 71.8108 17.758C72.9837 17.758 73.876 17.9465 74.4876 18.3235C75.1075 18.6921 75.4175 19.2577 75.4175 20.0201C75.4175 20.506 75.2709 20.8998 74.9777 21.2014C74.6928 21.503 74.2697 21.6873 73.7084 21.7543V21.9177C74.3368 21.9847 74.8436 22.1774 75.229 22.4958C75.6228 22.8058 75.8197 23.2833 75.8197 23.9284C75.8197 24.7579 75.4594 25.382 74.7389 25.8009C74.0268 26.2198 73.0214 26.4293 71.7228 26.4293Z" fill="#1F1F1F"/>
<path d="M216.609 23.2041C216.609 18.8875 220.108 15.3883 224.424 15.3883H246.569C250.886 15.3883 254.385 18.8875 254.385 23.2041C254.385 27.5206 250.886 31.0198 246.569 31.0198H224.424C220.108 31.0198 216.609 27.5206 216.609 23.2041Z" fill="#E0E0E0"/>
<path d="M247.192 27.5586C246.731 27.5586 246.329 27.479 245.986 27.3198C245.642 27.1523 245.378 26.9135 245.194 26.6035C245.01 26.2851 244.918 25.9039 244.918 25.4599C244.918 25.0159 245.01 24.6389 245.194 24.3289C245.378 24.0105 245.642 23.7675 245.986 23.6C246.329 23.4324 246.731 23.3486 247.192 23.3486C247.661 23.3486 248.064 23.4324 248.399 23.6C248.742 23.7675 249.006 24.0105 249.19 24.3289C249.375 24.6389 249.467 25.0159 249.467 25.4599C249.467 25.9039 249.375 26.2851 249.19 26.6035C249.006 26.9135 248.742 27.1523 248.399 27.3198C248.064 27.479 247.661 27.5586 247.192 27.5586ZM241.65 23.0596C241.189 23.0596 240.787 22.98 240.444 22.8208C240.1 22.6532 239.836 22.4145 239.652 22.1045C239.468 21.7861 239.375 21.4049 239.375 20.9609C239.375 20.5168 239.468 20.1398 239.652 19.8298C239.836 19.5115 240.1 19.2685 240.444 19.101C240.787 18.9334 241.189 18.8496 241.65 18.8496C242.119 18.8496 242.521 18.9334 242.857 19.101C243.2 19.2685 243.464 19.5115 243.648 19.8298C243.833 20.1398 243.925 20.5168 243.925 20.9609C243.925 21.4049 243.833 21.7861 243.648 22.1045C243.464 22.4145 243.2 22.6532 242.857 22.8208C242.521 22.98 242.119 23.0596 241.65 23.0596ZM241.65 21.5515C241.893 21.5515 242.056 21.5138 242.14 21.4384C242.232 21.363 242.278 21.2038 242.278 20.9609C242.278 20.7179 242.232 20.5545 242.14 20.4708C242.056 20.387 241.893 20.3451 241.65 20.3451C241.407 20.3451 241.24 20.387 241.147 20.4708C241.064 20.5545 241.022 20.7179 241.022 20.9609C241.022 21.2038 241.064 21.363 241.147 21.4384C241.24 21.5138 241.407 21.5515 241.65 21.5515ZM247.192 26.0506C247.435 26.0506 247.599 26.0129 247.682 25.9374C247.774 25.862 247.821 25.7029 247.821 25.4599C247.821 25.2169 247.774 25.0536 247.682 24.9698C247.599 24.886 247.435 24.8441 247.192 24.8441C246.949 24.8441 246.782 24.886 246.69 24.9698C246.606 25.0536 246.564 25.2169 246.564 25.4599C246.564 25.7029 246.606 25.862 246.69 25.9374C246.782 26.0129 246.949 26.0506 247.192 26.0506ZM241.989 27.4204H239.715L246.865 19.0004H249.14L241.989 27.4204Z" fill="#1F1F1F"/>
<path d="M234.645 27.5459C233.69 27.5459 232.89 27.3657 232.245 27.0055C231.6 26.6368 231.11 26.13 230.775 25.4849C230.448 24.8314 230.284 24.0732 230.284 23.2102C230.284 22.3473 230.448 21.5933 230.775 20.9481C231.11 20.2947 231.6 19.7878 232.245 19.4275C232.89 19.0589 233.69 18.8746 234.645 18.8746C235.6 18.8746 236.4 19.0589 237.046 19.4275C237.691 19.7878 238.177 20.2947 238.503 20.9481C238.83 21.5933 238.993 22.3473 238.993 23.2102C238.993 24.0732 238.83 24.8314 238.503 25.4849C238.177 26.13 237.691 26.6368 237.046 27.0055C236.4 27.3657 235.6 27.5459 234.645 27.5459ZM234.645 25.2461C235.123 25.2461 235.491 25.1874 235.751 25.0701C236.019 24.9445 236.204 24.735 236.304 24.4418C236.405 24.1402 236.455 23.7297 236.455 23.2102C236.455 22.6908 236.405 22.2844 236.304 21.9912C236.204 21.6896 236.019 21.4801 235.751 21.3629C235.491 21.2372 235.123 21.1744 234.645 21.1744C234.168 21.1744 233.795 21.2372 233.527 21.3629C233.267 21.4801 233.083 21.6896 232.974 21.9912C232.873 22.2844 232.823 22.6908 232.823 23.2102C232.823 23.7297 232.873 24.1402 232.974 24.4418C233.083 24.735 233.267 24.9445 233.527 25.0701C233.795 25.1874 234.168 25.2461 234.645 25.2461Z" fill="#1F1F1F"/>
<path d="M225.805 27.5457C224.858 27.5457 224.075 27.4284 223.455 27.1938C222.843 26.9592 222.387 26.6157 222.085 26.1633C221.784 25.7025 221.633 25.1412 221.633 24.4793V24.2782H224.146V24.5044C224.146 24.7139 224.171 24.8773 224.222 24.9946C224.272 25.1035 224.406 25.1789 224.624 25.2208C224.842 25.2627 225.198 25.2836 225.692 25.2836C226.17 25.2836 226.538 25.2669 226.798 25.2333C227.066 25.1998 227.25 25.137 227.351 25.0448C227.451 24.9443 227.502 24.8102 227.502 24.6427C227.502 24.4332 227.439 24.2908 227.313 24.2154C227.187 24.1316 226.986 24.0897 226.71 24.0897H224.209V22.1544H226.534C226.769 22.1544 226.928 22.1167 227.012 22.0413C227.104 21.9575 227.15 21.836 227.15 21.6769C227.15 21.5428 227.112 21.4381 227.037 21.3627C226.97 21.2789 226.827 21.2202 226.609 21.1867C226.4 21.1532 226.086 21.1365 225.667 21.1365C225.24 21.1365 224.917 21.1574 224.699 21.1993C224.481 21.2412 224.335 21.3208 224.259 21.4381C224.184 21.547 224.146 21.7062 224.146 21.9156V21.9533H221.633V21.9408C221.633 21.3124 221.788 20.772 222.098 20.3196C222.416 19.8588 222.89 19.5027 223.518 19.2514C224.146 19.0001 224.938 18.8744 225.893 18.8744C227.066 18.8744 227.958 19.0629 228.57 19.4399C229.19 19.8085 229.5 20.3741 229.5 21.1365C229.5 21.6224 229.353 22.0162 229.06 22.3178C228.775 22.6194 228.352 22.8037 227.791 22.8707V23.0341C228.419 23.1011 228.926 23.2938 229.311 23.6122C229.705 23.9222 229.902 24.3997 229.902 25.0448C229.902 25.8743 229.542 26.4984 228.821 26.9173C228.109 27.3362 227.104 27.5457 225.805 27.5457Z" fill="#1F1F1F"/>
<path d="M20.0977 48.7728H24.5638L20.0977 54.3555V48.7728Z" fill="#C1D182"/>
<path d="M145.82 32.6947H150.286L145.82 38.2774V32.6947Z" fill="#999999"/>
<path d="M16.1899 48.7728H11.7238L16.1899 54.3555V48.7728Z" fill="#C1D182"/>
<defs>
<linearGradient id="paint0_linear_4699_852" x1="0" y1="65.6325" x2="31.2631" y2="101.362" gradientUnits="userSpaceOnUse">
<stop stop-color="#E6FC8D"/>
<stop offset="1" stop-color="#A9B86E"/>
</linearGradient>
<linearGradient id="paint1_linear_4699_852" x1="148.5" y1="53.3507" x2="171.947" y2="80.1476" gradientUnits="userSpaceOnUse">
<stop stop-color="#CCCCCC"/>
<stop offset="1" stop-color="#8C8C8C"/>
</linearGradient>
<linearGradient id="paint2_linear_4699_852" x1="118.353" y1="53.3507" x2="141.8" y2="80.1476" gradientUnits="userSpaceOnUse">
<stop stop-color="#CCCCCC"/>
<stop offset="1" stop-color="#8C8C8C"/>
</linearGradient>
<linearGradient id="paint3_linear_4699_852" x1="258.059" y1="54.4672" x2="279.273" y2="77.3563" gradientUnits="userSpaceOnUse">
<stop stop-color="#CCCCCC"/>
<stop offset="1" stop-color="#8C8C8C"/>
</linearGradient>
<linearGradient id="paint4_linear_4699_852" x1="288.206" y1="54.4672" x2="309.42" y2="77.3563" gradientUnits="userSpaceOnUse">
<stop stop-color="#CCCCCC"/>
<stop offset="1" stop-color="#8C8C8C"/>
</linearGradient>
<linearGradient id="paint5_linear_4699_852" x1="318.353" y1="54.4672" x2="339.567" y2="77.3563" gradientUnits="userSpaceOnUse">
<stop stop-color="#CCCCCC"/>
<stop offset="1" stop-color="#8C8C8C"/>
</linearGradient>
<linearGradient id="paint6_linear_4699_852" x1="348.5" y1="54.4672" x2="369.714" y2="77.3563" gradientUnits="userSpaceOnUse">
<stop stop-color="#CCCCCC"/>
<stop offset="1" stop-color="#8C8C8C"/>
</linearGradient>
<linearGradient id="paint7_linear_4699_852" x1="378.645" y1="54.4673" x2="399.859" y2="77.3564" gradientUnits="userSpaceOnUse">
<stop stop-color="#CCCCCC"/>
<stop offset="1" stop-color="#8C8C8C"/>
</linearGradient>
<linearGradient id="paint8_linear_4699_852" x1="258.059" y1="87.9634" x2="279.273" y2="112.527" gradientUnits="userSpaceOnUse">
<stop stop-color="#CCCCCC"/>
<stop offset="1" stop-color="#8C8C8C"/>
</linearGradient>
<linearGradient id="paint9_linear_4699_852" x1="288.206" y1="87.9634" x2="309.42" y2="112.527" gradientUnits="userSpaceOnUse">
<stop stop-color="#CCCCCC"/>
<stop offset="1" stop-color="#8C8C8C"/>
</linearGradient>
<linearGradient id="paint10_linear_4699_852" x1="318.353" y1="87.9634" x2="339.567" y2="112.527" gradientUnits="userSpaceOnUse">
<stop stop-color="#CCCCCC"/>
<stop offset="1" stop-color="#8C8C8C"/>
</linearGradient>
<linearGradient id="paint11_linear_4699_852" x1="348.5" y1="87.9634" x2="369.714" y2="112.527" gradientUnits="userSpaceOnUse">
<stop stop-color="#CCCCCC"/>
<stop offset="1" stop-color="#8C8C8C"/>
</linearGradient>
<linearGradient id="paint12_linear_4699_852" x1="378.645" y1="87.9634" x2="399.859" y2="112.527" gradientUnits="userSpaceOnUse">
<stop stop-color="#CCCCCC"/>
<stop offset="1" stop-color="#8C8C8C"/>
</linearGradient>
<linearGradient id="paint13_linear_4699_852" x1="163.014" y1="86.8469" x2="186.462" y2="113.644" gradientUnits="userSpaceOnUse">
<stop stop-color="#CCCCCC"/>
<stop offset="1" stop-color="#8C8C8C"/>
</linearGradient>
<linearGradient id="paint14_linear_4699_852" x1="132.868" y1="86.8469" x2="156.315" y2="113.644" gradientUnits="userSpaceOnUse">
<stop stop-color="#CCCCCC"/>
<stop offset="1" stop-color="#8C8C8C"/>
</linearGradient>
<linearGradient id="paint15_linear_4699_852" x1="102.722" y1="86.8469" x2="126.169" y2="113.644" gradientUnits="userSpaceOnUse">
<stop stop-color="#CCCCCC"/>
<stop offset="1" stop-color="#8C8C8C"/>
</linearGradient>
</defs>
</svg>
