<svg xmlns="http://www.w3.org/2000/svg" width="35" height="34" viewBox="0 0 35 34" fill="none">
<path d="M25.1464 14.0692H24.3556V12.3687C24.3556 8.31146 20.9788 5 16.8414 5C12.7041 5 9.32728 8.31146 9.32728 12.3687V30C7.69415 30 12.7041 30 12.7041 30V12.3687C12.7041 10.1313 14.5598 8.34128 16.811 8.34128C19.0622 8.34128 20.9179 10.1611 20.9179 12.3687V14.0692H20.0966C19.6098 14.0692 19.2143 14.4571 19.2143 14.9344V16.5454C19.2143 17.0227 19.6098 17.4105 20.0966 17.4105H25.116C25.6028 17.4105 25.9984 17.0227 25.9984 16.5454V14.9344C26.0286 14.4571 25.6332 14.0692 25.1464 14.0692Z" fill="#F0EBE5"/>
<path d="M23.4576 20.2946C23.3801 20.1072 23.1737 20 22.9931 20C22.7867 20 22.6061 20.1072 22.5287 20.2946C22.5287 20.2946 21.445 22.4643 21.2129 22.9733C20.929 23.5894 20.929 24.2321 21.2129 24.8482C21.5483 25.5447 22.2449 26 22.9931 26C23.3028 26 23.6123 25.9197 23.8962 25.7859C24.3605 25.5447 24.7217 25.1161 24.9023 24.5805C25.0573 24.0447 25.0314 23.4822 24.7992 23L23.4576 20.2946Z" fill="#F0EBE5"/>
</svg>