<svg xmlns="http://www.w3.org/2000/svg" width="35" height="34" viewBox="0 0 35 34" fill="none">
<path fill-rule="evenodd" clip-rule="evenodd" d="M12.6551 10.0938C16.296 10.0938 19.2474 13.186 19.2474 17.0001C19.2474 20.8143 16.2958 23.9062 12.6551 23.9062C9.0143 23.9062 6.0625 20.8143 6.0625 17.0001C6.0625 13.186 9.01408 10.0938 12.6551 10.0938ZM23.1829 10.4983C25.0034 10.4983 26.4792 13.409 26.4792 17.0001H26.4794C26.4794 20.5903 25.0036 23.5019 23.1831 23.5019C21.3626 23.5019 19.8869 20.5903 19.8869 17.0001C19.8869 13.4099 21.3624 10.4983 23.1829 10.4983ZM29.4375 17.0001C29.4375 13.7832 28.9183 11.1755 28.2782 11.1755C27.6381 11.1755 27.1191 13.7835 27.1191 17.0001C27.1191 20.2168 27.6378 22.8247 28.2782 22.8247C28.9185 22.8247 29.4375 20.2161 29.4375 17.0001Z" fill="#F0EBE5"/>
</svg>