<svg xmlns="http://www.w3.org/2000/svg" width="16" height="16" viewBox="0 0 16 16" fill="none">
<path d="M13.1164 6.94382C13.0965 6.8806 13.0821 6.81643 13.0712 6.7514C13.0658 6.7216 13.0604 6.69086 13.0541 6.66105C13.0396 6.59602 13.0243 6.53184 13.0071 6.4677C13.2917 6.03765 14.6505 3.79254 13.1038 2.35152C11.3871 0.752402 9.38151 2.84843 9.38151 2.84843L9.38781 2.85746C8.48612 2.58372 7.50863 2.55119 6.55819 2.84843C6.54642 2.83578 4.54797 0.756916 2.8359 2.35152C1.12384 3.94614 2.97233 6.52642 2.98226 6.53998C2.96239 6.60051 2.94703 6.66286 2.93619 6.72522C2.75098 7.83009 1.48975 8.17073 1.48975 10.0942C1.48975 12.0177 2.8088 13.5996 5.50112 13.5996H6.60608C6.61057 13.6069 7.06593 14.251 8.00009 14.251C8.86741 14.2501 9.43931 13.6059 9.44474 13.5996H10.4991C13.1914 13.5996 14.5104 12.0547 14.5104 10.0942C14.5104 8.30354 13.4163 7.88435 13.1164 6.94382Z" fill="#121212"/>
</svg>