<svg width="28" height="28" viewBox="0 0 28 28" xmlns="http://www.w3.org/2000/svg">
    <g fill="none" fill-rule="evenodd">
        <path d="M0 0h28v28H0z"/>
        <path d="M9.804 8.313c2.999 0 5.43 2.546 5.43 5.687 0 3.141-2.432 5.688-5.43 5.688-2.998 0-5.429-2.547-5.429-5.688 0-3.141 2.43-5.688 5.43-5.688zm8.67.333c1.5 0 2.715 2.397 2.715 5.354 0 2.957-1.215 5.355-2.715 5.355-1.499 0-2.714-2.398-2.714-5.355 0-2.957 1.215-5.354 2.714-5.354zm4.196.557c.527 0 .955 2.148.955 4.797 0 2.649-.427 4.797-.955 4.797-.527 0-.954-2.148-.954-4.797 0-2.649.427-4.797.954-4.797z" fill="#989995" fill-rule="nonzero"/>
    </g>
</svg>
