<svg width="130" height="28" viewBox="0 0 130 28" fill="none" xmlns="http://www.w3.org/2000/svg">
<rect x="94.5" y="5.5" width="32" height="17" rx="2.5" fill="#171717" stroke="#CCA239"/>
<path d="M104.37 13.6V13.62C105.14 13.83 105.55 14.35 105.55 15.18C105.55 16.39 104.76 17 103.26 17H100.28V10.36H103.01C104.52 10.36 105.31 10.96 105.31 12.15C105.31 12.86 104.99 13.35 104.37 13.6ZM101.24 13.22H102.94C103.89 13.22 104.36 12.88 104.36 12.21C104.36 11.54 103.9 11.21 102.99 11.21H101.24V13.22ZM101.24 16.15H103.23C104.13 16.15 104.58 15.81 104.58 15.11C104.58 14.42 104.12 14.07 103.17 14.07H101.24V16.15ZM111.047 14.94H107.097C107.217 15.81 107.917 16.34 108.977 16.34C109.667 16.34 110.267 16.12 110.707 15.7H110.747V16.56C110.327 16.9 109.687 17.1 108.957 17.1C107.307 17.1 106.237 16.13 106.237 14.66C106.237 13.23 107.247 12.22 108.677 12.22C110.117 12.22 111.047 13.11 111.047 14.47V14.94ZM108.687 12.98C107.887 12.98 107.257 13.48 107.097 14.23H110.257C110.137 13.47 109.537 12.98 108.687 12.98ZM114.715 16.07V16.93C114.505 17.04 114.225 17.1 113.865 17.1C112.885 17.1 112.335 16.52 112.335 15.47V13.06H111.475V12.32H112.355L112.485 11.05H113.185V12.32H114.695V13.06H113.185V15.45C113.185 16.01 113.485 16.34 113.985 16.34C114.245 16.34 114.485 16.27 114.675 16.07H114.715ZM120.298 17H119.578L119.548 16.26H119.528C119.178 16.78 118.538 17.1 117.718 17.1C116.358 17.1 115.378 16.08 115.378 14.66C115.378 13.24 116.358 12.22 117.718 12.22C118.538 12.22 119.178 12.54 119.528 13.07H119.548L119.578 12.32H120.298V17ZM117.858 16.34C118.808 16.34 119.478 15.65 119.478 14.66C119.478 13.67 118.808 12.98 117.858 12.98C116.898 12.98 116.238 13.67 116.238 14.66C116.238 15.65 116.898 16.34 117.858 16.34Z" fill="#FFB624"/>
<path fill-rule="evenodd" clip-rule="evenodd" d="M17.0123 13.1421L23.7281 3H32V4.69237H24.5684L15.6051 18.2313L2 18.2351V16.5427H14.7606L16.0312 14.6238L9.45633 4.69237L3.68 4.6998V14.854H2V3H10.2831V3.02727L10.2966 3L17.0123 13.1421ZM25.7821 6.38465L17.9392 18.2313H32V6.38465H25.7821ZM2 24.9999V19.9228H14.4847L11.1234 24.9999H2ZM30.32 23.3075V19.9228H32V24.9999H22.9013L19.54 19.9228H21.5028L23.7416 23.3038V23.3075H30.32Z" fill="url(#paint0_linear_2_179)"/>
<path d="M87.37 11.15H84.8334L82.7853 16.95H82.7478L80.6806 11.15H78.05L81.451 19.6629C81.451 19.6629 81.1093 20.4514 80.9931 20.7134C80.8768 20.9753 80.7427 21.2026 80.5198 21.3593C80.3557 21.4772 80.1599 21.5323 79.9324 21.5243C79.7084 21.5166 79.4568 21.4674 79.1769 21.3771L78.6398 23.2507C78.8114 23.3252 79.0278 23.3863 79.2888 23.4332C79.4457 23.4633 79.6095 23.4845 79.7796 23.4969L79.7789 23.4984L79.7809 23.4971C79.8974 23.5056 80.0168 23.51 80.1392 23.51C80.7287 23.51 81.2323 23.4097 81.6501 23.2094C82.068 23.013 82.4131 22.7323 82.6854 22.367C83.0077 21.8612 83.0983 21.5777 83.2992 21.0956L87.37 11.15Z" fill="#F0EBE5"/>
<path d="M73.4972 10.936C75.9976 10.936 77.8212 12.8724 77.8212 15.542C77.8212 18.2116 75.9976 20.148 73.4972 20.148C72.2 20.148 71.1848 19.6404 70.6208 18.7944H70.5832L70.4892 19.96H68.44V6.8H70.9028V11.8948H70.9404C71.542 11.2744 72.4068 10.936 73.4972 10.936ZM73.0836 17.9672C74.4372 17.9672 75.3396 16.9708 75.3396 15.542C75.3396 14.1132 74.4372 13.1168 73.0836 13.1168C71.7488 13.1168 70.8464 14.1132 70.8464 15.542C70.8464 16.9708 71.7488 17.9672 73.0836 17.9672Z" fill="#F0EBE5"/>
<path d="M62.4028 10.936C65.1664 10.936 67.1216 12.8348 67.1216 15.542C67.1216 18.2304 65.1664 20.148 62.4028 20.148C59.6204 20.148 57.6652 18.2304 57.6652 15.542C57.6652 12.8348 59.6204 10.936 62.4028 10.936ZM62.4028 13.1168C61.068 13.1168 60.1468 14.1132 60.1468 15.542C60.1468 16.9708 61.068 17.9672 62.4028 17.9672C63.7188 17.9672 64.64 16.9708 64.64 15.542C64.64 14.1132 63.7188 13.1168 62.4028 13.1168Z" fill="#F0EBE5"/>
<path d="M56.1716 19.96H53.3892V10.56H53.3516L49.742 19.96H47.2228L43.726 10.8232H43.6884V19.96H41V7.4768H45.1736L48.52 16.1812H48.5576L51.904 7.4768H56.1716V19.96Z" fill="#F0EBE5"/>
<defs>
<linearGradient id="paint0_linear_2_179" x1="2" y1="3.1875" x2="32" y2="25" gradientUnits="userSpaceOnUse">
<stop offset="0.53" stop-color="#E6FC8D"/>
<stop offset="1" stop-color="#E08D3F"/>
</linearGradient>
</defs>
</svg>
