<svg width="36" height="36" viewBox="0 0 36 36" fill="none" xmlns="http://www.w3.org/2000/svg">
<path fill-rule="evenodd" clip-rule="evenodd" d="M0 4C0 1.79086 1.79086 0 4 0L32 0C34.2091 0 36 1.79086 36 4V32C36 34.2091 34.2091 36 32 36H4C1.79086 36 0 34.2091 0 32V4Z" fill="#292929"/>
<path fill-rule="evenodd" clip-rule="evenodd" d="M26 9H12V27H26V9ZM19.1261 17.2269C18.3254 17.8302 18.0293 18.4335 18.0293 19.5194H19.8391C19.8391 18.9051 20.0914 18.5102 20.8921 17.885C21.6051 17.3366 22 16.6894 22 15.8777C22 14.3859 20.925 13.3 19.0274 13.3C17.2505 13.3 16 14.4846 16 16.0642H17.9086C17.9086 15.5048 18.3035 14.9892 19.0384 14.9892C19.7294 14.9892 20.1243 15.3293 20.1243 15.8777C20.1243 16.4042 19.7733 16.7333 19.1261 17.2269ZM17.8318 21.4828C17.8318 22.1519 18.3254 22.6346 18.9945 22.6346C19.6636 22.6346 20.1572 22.1519 20.1572 21.4828C20.1572 20.8137 19.6636 20.3201 18.9945 20.3201C18.3254 20.3201 17.8318 20.8137 17.8318 21.4828Z" fill="#D9D9D9"/>
<rect x="9.5" y="12" width="2.5" height="2" fill="#D9D9D9"/>
<rect x="9.5" y="17" width="2.5" height="2" fill="#D9D9D9"/>
<rect x="9.5" y="22" width="2.5" height="2" fill="#D9D9D9"/>
</svg>
