<svg width="18" height="18" viewBox="0 0 18 18" fill="none" xmlns="http://www.w3.org/2000/svg">
<g id="icons/18/dropdown copy">
<g id="Group 2">
<g id="Group">
<path id="Combined Shape" fill-rule="evenodd" clip-rule="evenodd" d="M11.4025 10.9246C11.6651 11.1872 12.0908 11.1872 12.3533 10.9246C12.6159 10.6621 12.6159 10.2364 12.3533 9.97387L9.46629 7.08684C9.20374 6.82429 8.77806 6.82429 8.51551 7.08684C8.25297 7.34938 8.25297 7.77506 8.51551 8.03761L11.4025 10.9246Z" fill="#808080"/>
<path id="Combined Shape_2" fill-rule="evenodd" clip-rule="evenodd" d="M6.58574 10.9243C6.32319 11.1868 5.89751 11.1868 5.63497 10.9243C5.37242 10.6617 5.37242 10.236 5.63497 9.9735L8.52163 7.08684C8.78418 6.82429 9.20985 6.82429 9.4724 7.08684C9.73495 7.34938 9.73495 7.77506 9.4724 8.03761L6.58574 10.9243Z" fill="#808080"/>
</g>
</g>
</g>
</svg>
