<svg width="32" height="32" viewBox="0 0 32 32" fill="none" xmlns="http://www.w3.org/2000/svg">
  <path fill-rule="evenodd" clip-rule="evenodd" d="M16 32C24.8366 32 32 24.8366 32 16C32 7.16344 24.8366 0 16 0C7.16344 0 0 7.16344 0 16C0 24.8366 7.16344 32 16 32ZM19.1806 10.5436C21.1643 11.2269 22.615 12.2512 22.33 14.1566C22.1237 15.5514 21.3505 16.2266 20.3239 16.4633C21.7335 17.1972 22.4508 18.3226 21.7675 20.2737C20.9195 22.6968 18.905 22.9013 16.2259 22.3943L15.5757 25L14.0046 24.6084L14.6463 22.0376C14.2391 21.9365 13.8229 21.8291 13.3942 21.7128L12.7503 24.2956L11.181 23.9041L11.8312 21.2935C11.6845 21.2559 11.5369 21.2174 11.3883 21.1787C11.1651 21.1204 10.9395 21.0616 10.7111 21.0044L8.66657 20.4947L9.44654 18.6963C9.44654 18.6963 10.6042 19.0041 10.5885 18.9813C11.0333 19.0914 11.2306 18.8014 11.3085 18.6081C11.8969 16.2492 12.4837 13.896 13.0716 11.5375C13.0908 11.2036 12.9758 10.7825 12.3395 10.6237C12.3641 10.6071 11.1984 10.34 11.1984 10.34L11.6164 8.66193C11.9306 8.74039 12.2444 8.82026 12.5582 8.90012C13.2989 9.08864 14.0394 9.2771 14.7846 9.44681L15.4285 6.86663L16.9987 7.25818L16.3677 9.7878C16.7893 9.884 17.2135 9.98111 17.6265 10.084L18.253 7.57097L19.8241 7.96251L19.1806 10.5436ZM14.2111 19.9017C15.4931 20.2403 18.2949 20.9803 18.7403 19.1903C19.1967 17.3601 16.4795 16.7504 15.1535 16.4529C15.0054 16.4196 14.8746 16.3903 14.7675 16.3636L13.9048 19.8221C13.9927 19.844 14.0958 19.8712 14.2111 19.9017ZM15.4199 14.8478C16.4888 15.1331 18.8202 15.7552 19.2263 14.1284C19.641 12.4643 17.375 11.9627 16.2684 11.7177C16.1439 11.6902 16.0341 11.6659 15.9444 11.6435L15.1622 14.7804C15.2361 14.7988 15.3228 14.8219 15.4199 14.8478Z" fill="#B3B3B3"/>
</svg>
