<svg width="28" height="28" viewBox="0 0 28 28" fill="none" xmlns="http://www.w3.org/2000/svg">
<path fill-rule="evenodd" clip-rule="evenodd" d="M4.8125 6.8625C4.8125 6.69681 4.94681 6.5625 5.1125 6.5625H10.0626C10.9908 6.5625 11.8811 6.92709 12.5374 7.57606C13.1938 8.22504 13.5626 9.10523 13.5626 10.023C13.5626 10.023 13.5626 17.4625 13.5626 21.1822C13.5626 21.4997 13.5022 21.5238 13.3961 21.2391C13.266 20.8901 13.0649 20.5677 12.7937 20.2996C12.3014 19.8129 11.6338 19.5394 10.9376 19.5394H5.1125C4.94682 19.5394 4.8125 19.4051 4.8125 19.2394V6.8625Z" fill="#989995"/>
<path fill-rule="evenodd" clip-rule="evenodd" d="M23.1876 6.8625C23.1876 6.69681 23.0532 6.5625 22.8876 6.5625H17.9375C17.0092 6.5625 16.119 6.92709 15.4626 7.57606C14.8062 8.22504 14.4375 9.10523 14.4375 10.023C14.4375 10.023 14.4375 17.4625 14.4375 21.1822C14.4375 21.4997 14.4978 21.5238 14.6039 21.2391C14.734 20.8901 14.9352 20.5677 15.2063 20.2996C15.6986 19.8129 16.3663 19.5394 17.0625 19.5394H22.8876C23.0532 19.5394 23.1876 19.4051 23.1876 19.2394V6.8625Z" fill="#989995"/>
</svg>
