<svg width="19" height="17" viewBox="0 0 19 17" fill="none" xmlns="http://www.w3.org/2000/svg">
<g id="Group 8">
<g id="Group 7">
<circle id="Ellipse 1" cx="12.5678" cy="10.2704" r="3.96778" stroke="#C1D182" stroke-width="2"/>
<path id="Line 1 (Stroke)" fill-rule="evenodd" clip-rule="evenodd" d="M14.6194 12.5832C15.0505 12.1521 15.7495 12.1521 16.1806 12.5832L17.9312 14.3339C18.3624 14.765 18.3624 15.464 17.9312 15.8951C17.5001 16.3262 16.8011 16.3262 16.37 15.8951L14.6194 14.1444C14.1883 13.7133 14.1883 13.0143 14.6194 12.5832Z" fill="#C1D182"/>
</g>
<path id="Subtract" fill-rule="evenodd" clip-rule="evenodd" d="M9.84632 4.1943L6.04568 2L2.20001 4.2203L2.20001 8.6609L6.01569 10.8639V12.881C5.68042 12.876 5.34613 12.7867 5.04568 12.6132L1.20001 10.3929C0.58121 10.0357 0.200012 9.37543 0.200012 8.6609V4.2203C0.200012 3.50577 0.58121 2.84551 1.20001 2.48825L5.04568 0.267949C5.66449 -0.0893165 6.42688 -0.0893163 7.04568 0.267949L10.8914 2.48825C11.1779 2.6537 11.4135 2.88413 11.5839 3.15485C11.5228 3.18438 11.4627 3.21698 11.4038 3.25262L9.84632 4.1943Z" fill="#C1D182"/>
</g>
</svg>
