<svg width="18" height="18" viewBox="0 0 18 18" fill="none" xmlns="http://www.w3.org/2000/svg">
<g id="icons/18/dropdown copy">
<g id="Group 2">
<g id="Group">
<path id="Combined Shape" fill-rule="evenodd" clip-rule="evenodd" d="M11.4025 7.07548C11.6651 6.81293 12.0908 6.81294 12.3533 7.07548C12.6159 7.33803 12.6159 7.76371 12.3533 8.02626L9.46629 10.9133C9.20374 11.1758 8.77806 11.1758 8.51551 10.9133C8.25297 10.6507 8.25297 10.2251 8.51551 9.96251L11.4025 7.07548Z" fill="#808080"/>
<path id="Combined Shape_2" fill-rule="evenodd" clip-rule="evenodd" d="M6.58574 7.07597C6.32319 6.81342 5.89751 6.81342 5.63497 7.07597C5.37242 7.33852 5.37242 7.7642 5.63497 8.02674L8.52163 10.9134C8.78418 11.176 9.20985 11.176 9.4724 10.9134C9.73495 10.6509 9.73495 10.2252 9.4724 9.96264L6.58574 7.07597Z" fill="#808080"/>
</g>
</g>
</g>
</svg>
