<svg width="28" height="28" viewBox="0 0 28 28" fill="none" xmlns="http://www.w3.org/2000/svg">
<path fill-rule="evenodd" clip-rule="evenodd" d="M9.80417 8.3125C12.8026 8.3125 15.2332 10.859 15.2332 14.0001C15.2332 17.1412 12.8024 19.6875 9.80417 19.6875C6.8059 19.6875 4.375 17.1412 4.375 14.0001C4.375 10.859 6.80571 8.3125 9.80417 8.3125ZM18.4742 8.64566C19.9734 8.64566 21.1888 11.0427 21.1888 14.0001H21.1889C21.1889 16.9567 19.9736 19.3545 18.4744 19.3545C16.9751 19.3545 15.7598 16.9567 15.7598 14.0001C15.7598 11.0435 16.9749 8.64566 18.4742 8.64566ZM23.625 14.0001C23.625 11.3509 23.1974 9.20337 22.6703 9.20337C22.1431 9.20337 21.7157 11.3511 21.7157 14.0001C21.7157 16.6491 22.1429 18.7968 22.6703 18.7968C23.1976 18.7968 23.625 16.6485 23.625 14.0001Z" fill="#E0E0E0"/>
</svg>
