<svg width="19" height="18" viewBox="0 0 19 18" fill="none" xmlns="http://www.w3.org/2000/svg">
<g id="Group 2">
<g id="Group">
<path id="Rectangle" d="M8.75 17H3.75C2.64543 17 1.75 16.1046 1.75 15V9L1.75 3C1.75 1.89543 2.64543 1 3.75 1L8.75 1" stroke="#C74040" stroke-width="2" stroke-linecap="round"/>
</g>
<path id="Combined Shape" fill-rule="evenodd" clip-rule="evenodd" d="M8.33138 10.0864C7.73415 10.0864 7.25 9.6022 7.25 9.00497C7.25 8.40774 7.73415 7.92359 8.33138 7.92359L14.5054 7.92359L12.381 5.79922C11.9587 5.37692 11.9587 4.69223 12.381 4.26992C12.8033 3.84762 13.488 3.84762 13.9103 4.26992L17.6419 8.00152C17.7393 8.05158 17.8306 8.11738 17.9122 8.19894C18.0009 8.28767 18.071 8.38799 18.1224 8.49502C18.2038 8.64694 18.25 8.82057 18.25 9.00497C18.25 9.23345 18.1791 9.44537 18.0582 9.61997C18.017 9.68415 17.9683 9.74493 17.9122 9.80107C17.8306 9.88262 17.7393 9.94843 17.6419 9.99848L13.9103 13.7301C13.488 14.1524 12.8033 14.1524 12.381 13.7301C11.9587 13.3078 11.9587 12.6231 12.381 12.2008L14.4955 10.0864H8.33138Z" fill="#C74040"/>
</g>
</svg>
