<svg width="28" height="28" viewBox="0 0 28 28" fill="none" xmlns="http://www.w3.org/2000/svg">
<path fill-rule="evenodd" clip-rule="evenodd" d="M20.3779 8.17248C19.1706 7.61685 17.8961 7.22267 16.587 7C16.4078 7.32194 16.2457 7.65318 16.1014 7.99232C14.7069 7.78107 13.2887 7.78107 11.8942 7.99232C11.7498 7.65321 11.5877 7.32198 11.4086 7C10.0986 7.22455 8.8233 7.61966 7.61483 8.17538C5.21571 11.7437 4.56535 15.2233 4.89053 18.6536C6.29552 19.6971 7.8681 20.4908 9.53991 21C9.91636 20.491 10.2495 19.9511 10.5357 19.3858C9.99204 19.1817 9.46731 18.9299 8.96759 18.6333C9.09911 18.5374 9.22774 18.4386 9.35203 18.3427C12.296 19.7345 15.7039 19.7345 18.6479 18.3427C18.7736 18.4458 18.9023 18.5446 19.0323 18.6333C18.5317 18.9304 18.006 19.1827 17.4614 19.3873C17.7472 19.9523 18.0804 20.4918 18.4571 21C20.1304 20.4928 21.7042 19.6996 23.1094 18.655C23.491 14.677 22.4576 11.2293 20.3779 8.17248ZM10.9476 16.544C10.0414 16.544 9.29277 15.7173 9.29277 14.7003C9.29277 13.6833 10.0154 12.8493 10.9447 12.8493C11.874 12.8493 12.6169 13.6833 12.601 14.7003C12.5851 15.7173 11.8711 16.544 10.9476 16.544ZM15.399 14.7003C15.399 15.7173 16.1447 16.544 17.0523 16.544C17.9759 16.544 18.6884 15.7173 18.7043 14.7003C18.7202 13.6833 17.9831 12.8493 17.0523 12.8493C16.1216 12.8493 15.399 13.6833 15.399 14.7003Z" fill="#E0E0E0"/>
</svg>
