<svg width="24" height="24" viewBox="0 0 24 24" fill="none" xmlns="http://www.w3.org/2000/svg">
<g id="icon-bera">
<g id="BerachainLogo">
<path id="Vector" d="M19.0729 10.54C19.0454 10.4526 19.0254 10.3639 19.0104 10.274C19.0029 10.2328 18.9954 10.1903 18.9867 10.1491C18.9667 10.0592 18.9455 9.97048 18.9217 9.8818C19.3152 9.2873 21.1936 6.18363 19.0554 4.19154C16.6823 1.98089 13.9097 4.87847 13.9097 4.87847L13.9184 4.89096C12.6719 4.51253 11.3206 4.46756 10.0067 4.87847C9.99043 4.86099 7.22773 1.98713 4.86095 4.19154C2.49417 6.39596 5.04954 9.96298 5.06328 9.98172C5.0358 10.0654 5.01457 10.1516 4.99958 10.2378C4.74355 11.7652 3 12.2361 3 14.8951C3 17.5542 4.82348 19.7411 8.54538 19.7411H10.0729C10.0791 19.7511 10.7086 20.6416 12 20.6416C13.199 20.6403 13.9896 19.7498 13.9971 19.7411H15.4546C19.1765 19.7411 21 17.6054 21 14.8951C21 12.4197 19.4875 11.8402 19.0729 10.54Z" fill="#DEB69A"/>
</g>
</g>
</svg>
