<svg width="41" height="40" viewBox="0 0 41 40" fill="none" xmlns="http://www.w3.org/2000/svg">
<path fill-rule="evenodd" clip-rule="evenodd" d="M17.9 23.2C21.2137 23.2 23.9 20.5137 23.9 17.2C23.9 13.8862 21.2137 11.2 17.9 11.2C14.5863 11.2 11.9 13.8862 11.9 17.2C11.9 20.5137 14.5863 23.2 17.9 23.2ZM23.9 30.2C21.0678 30.2 18.6939 28.2376 18.0638 25.5984C18.7523 25.5852 19.4205 25.4892 20.0589 25.3199C20.5433 26.984 22.0796 28.2 23.9 28.2C26.1091 28.2 27.9 26.4091 27.9 24.2C27.9 22.5964 26.9564 21.2133 25.5943 20.5754C25.8616 19.9669 26.0589 19.3205 26.1759 18.6466C28.361 19.5431 29.9 21.6918 29.9 24.2C29.9 27.5137 27.2137 30.2 23.9 30.2Z" fill="#F5F5F5"/>
</svg>
